<svg width="72" height="97" viewBox="0 0 72 97" fill="none" xmlns="http://www.w3.org/2000/svg">
<g clip-path="url(#clip0_2059_9501)">
<path d="M13.1777 96.3145V95.4614H14.6734V90.1851H13.1777V89.332H17.1427V90.1851H15.647V95.4614H17.1427V96.3145H13.1777Z" fill="white"/>
<path d="M22.7335 96.3253L19.3832 90.973H19.3614V96.3144H18.4531V89.3374H19.4049L22.7227 94.6028H22.7498V89.3374H23.6527V96.3253H22.7335Z" fill="white"/>
<path d="M29.3917 96.3253L26.0414 90.973H26.0196V96.3144H25.1113V89.3374H26.0631L29.3809 94.6028H29.4081V89.3374H30.3109V96.3253H29.3917Z" fill="white"/>
<path d="M34.2588 96.4286C32.7903 96.4286 31.5938 95.6189 31.5938 94.0703V91.7501C31.5938 90.158 32.7957 89.207 34.2588 89.207C35.7219 89.207 36.9402 90.109 36.9402 91.6414V93.9236C36.9402 95.5211 35.6892 96.4286 34.2588 96.4286ZM34.237 90.071C33.307 90.071 32.5727 90.6361 32.5727 91.7066V94.016C32.5727 95.0049 33.2689 95.5809 34.2751 95.5809C35.216 95.5809 35.9612 95.043 35.9612 93.9942V91.6251C35.9612 90.647 35.2759 90.071 34.237 90.071Z" fill="white"/>
<path d="M40.8577 96.3416H39.8787L37.627 89.3374H38.6277L40.3736 94.9505H40.4008L42.114 89.3374H43.1202L40.8577 96.3416Z" fill="white"/>
<path d="M47.6231 96.3145L46.9867 94.4833H44.2618L43.6255 96.3145H42.6465L45.2028 89.3103H46.1056L48.6347 96.3145H47.6285H47.6231ZM45.6324 90.5329H45.6107L44.5338 93.6628H46.7093L45.6324 90.5329Z" fill="white"/>
<path d="M51.3113 90.1796V96.3144H50.3323V90.1796H48.3145V89.3374H53.3182V90.1796H51.3113Z" fill="white"/>
<path d="M56.8018 96.4286C55.3333 96.4286 54.1367 95.6189 54.1367 94.0703V91.7501C54.1367 90.158 55.3387 89.207 56.8018 89.207C58.2648 89.207 59.4831 90.109 59.4831 91.6414V93.9236C59.4831 95.5211 58.2322 96.4286 56.8018 96.4286ZM56.78 90.071C55.85 90.071 55.1157 90.6361 55.1157 91.7066V94.016C55.1157 95.0049 55.8119 95.5809 56.8181 95.5809C57.759 95.5809 58.5041 95.043 58.5041 93.9942V91.6251C58.5041 90.647 57.8188 90.071 56.78 90.071Z" fill="white"/>
<path d="M64.7834 96.3144L62.9832 93.5921H61.7377V96.3144H60.7695V89.3374H63.2877C63.9132 89.3374 64.4408 89.4732 64.8541 89.7993C65.3328 90.1633 65.6101 90.7502 65.6101 91.4403C65.6101 92.4455 65.0445 93.2498 63.9948 93.5051L65.8875 96.3144H64.7889H64.7834ZM63.0811 90.1579H61.7377V92.7716H63.0974C64.0764 92.7716 64.6366 92.3314 64.6366 91.4403C64.6366 90.5002 63.9023 90.1579 63.0811 90.1579Z" fill="white"/>
<path d="M71.9994 12.5141L0.951172 0V59.4677L61.8069 70.1887L71.9994 12.5141Z" fill="#D41019"/>
<path d="M47.747 24.9141L36.7605 43.0739L33.0077 22.3222L28.9285 21.6049L17.9583 39.6669L14.2544 19.0184L9.35938 18.1544L14.7276 46.4918L18.6871 47.1873L29.6192 29.435L33.4754 49.7956L37.5111 50.5074L48.9273 32.0052L50.8037 41.8404L47.2956 41.2264L44.6632 45.4974L51.6739 46.7309L52.9738 53.2297L57.586 54.0394L52.5659 25.7672L47.747 24.9141Z" fill="white"/>
<path d="M11.661 75.7257L9.11558 85.2077H7.57093L5.82505 79.4533L4.07917 85.2077H2.53452L0 75.7257H1.93081L3.3993 81.7029L5.13431 75.7257H6.51579L8.25079 81.7029L9.73017 75.7257H11.661Z" fill="#D41019"/>
<path d="M18.8255 85.2077H12.5762V75.7257H18.8255V77.3776H14.4254V79.6H18.1728V81.2519H14.4254V83.5558H18.8255V85.2077Z" fill="#D41019"/>
<path d="M26.9915 82.4745C26.9915 83.3385 26.725 84.0069 26.192 84.4905C25.659 84.9686 24.9519 85.2077 24.0872 85.2077H20.1113V75.7257H23.924C24.8377 75.7257 25.5557 75.9648 26.0778 76.4375C26.5999 76.9157 26.861 77.5678 26.861 78.3883C26.861 78.8665 26.725 79.3012 26.4585 79.6815C26.2464 79.9858 25.9853 80.2086 25.6862 80.3445C26.0506 80.5183 26.3389 80.7411 26.551 81.0237C26.8447 81.4149 26.9861 81.904 26.9861 82.4745M25.0009 78.4698C25.0009 78.1383 24.8867 77.8775 24.6691 77.6764C24.457 77.4754 24.1524 77.3776 23.7717 77.3776H21.9606V79.562H23.7717C24.1579 79.562 24.4679 79.4587 24.68 79.2686C24.8921 79.0784 25.0009 78.8067 25.0009 78.4698ZM25.1369 82.3821C25.1369 82.0452 25.039 81.7735 24.8432 81.5725C24.6202 81.3443 24.3047 81.2302 23.8968 81.2302H21.966V83.5613H23.8968C24.2938 83.5613 24.6038 83.4526 24.8105 83.2298C25.0226 83.0125 25.1314 82.7299 25.1314 82.393" fill="#D41019"/>
<path d="M36.9251 85.2077H34.9889L34.4287 83.5287H31.0566L30.4855 85.2077H28.5547L32.0084 75.7257H33.4551L36.9251 85.2077ZM33.9392 81.9746L32.7807 78.5241L31.5787 81.9746H33.9337H33.9392Z" fill="#D41019"/>
<path d="M47.6996 75.7257L45.1542 85.2077H43.6041L41.8583 79.4533L40.1124 85.2077H38.5677L36.0332 75.7257H37.9694L39.4325 81.7029L41.1621 75.7257H42.5544L44.284 81.7029L45.7634 75.7257H47.6996Z" fill="#D41019"/>
<path d="M54.9759 85.2077H53.0451L52.4849 83.5287H49.1128L48.5363 85.2077H46.6055L50.0592 75.7257H51.5113L54.9759 85.2077ZM51.99 81.9746L50.8315 78.5241L49.6295 81.9746H51.99Z" fill="#D41019"/>
<path d="M62.6184 85.2077H60.4754L58.6208 81.4203H57.2828V85.2077H55.4336V75.7257H59.1484C60.0893 75.7257 60.8453 76.0083 61.4164 76.5788C61.9603 77.1168 62.2322 77.8014 62.2322 78.6274C62.2322 79.2468 62.0582 79.7848 61.7155 80.2358C61.4001 80.6433 60.9976 80.9367 60.5026 81.1106L62.6238 85.2077H62.6184ZM60.3775 78.6219C60.3775 78.2416 60.2525 77.9427 60.0077 77.7145C59.763 77.4917 59.4366 77.3776 59.0287 77.3776H57.2774V79.8663H59.0287C59.4257 79.8663 59.7521 79.7522 60.0023 79.5185C60.2524 79.2903 60.3775 78.9914 60.3775 78.6165" fill="#D41019"/>
<path d="M70.2278 80.426V81.04C70.2278 81.8007 70.1843 82.3767 70.0973 82.7734C69.9613 83.3765 69.6894 83.8873 69.2706 84.3003C68.9769 84.5937 68.6125 84.8219 68.1719 84.9741C67.7314 85.1317 67.2637 85.2077 66.7687 85.2077H63.3477V75.7257H66.7687C67.2745 75.7257 67.7423 75.7963 68.1665 75.9431C68.5907 76.0898 68.9606 76.3234 69.2706 76.6332C69.6894 77.0516 69.9668 77.5515 70.0973 78.122C70.1843 78.5078 70.2278 79.0729 70.2278 79.8282V80.426ZM68.3732 80.426C68.3732 79.6598 68.3514 79.1164 68.3025 78.7795C68.2535 78.448 68.1448 78.1764 67.9816 77.9753C67.8184 77.7688 67.6226 77.6221 67.3996 77.5243C67.1766 77.4265 66.9047 77.3776 66.5838 77.3776H65.186V83.5558H66.5838C67.1929 83.5558 67.6553 83.3602 67.9707 82.969C68.1448 82.7625 68.2535 82.4854 68.3025 82.1376C68.3514 81.7899 68.3732 81.2193 68.3732 80.426Z" fill="#D41019"/>
<path d="M0.749796 96.3417V95.456L3.26256 92.5C3.70855 91.9837 3.94786 91.4784 3.94786 90.8753V90.6851C3.94786 90.1689 3.62153 89.7667 2.9036 89.7667C2.22917 89.7667 1.84845 90.158 1.84845 90.7611V90.9622H0.570312V90.6905C0.570312 89.3701 1.59282 88.7072 3.01237 88.7072C4.53526 88.7072 5.31302 89.6146 5.31302 90.8263C5.31302 92.2283 4.35034 93.1248 3.47468 94.1084L2.50112 95.1951V95.2169H5.41636V96.3471H0.749796V96.3417Z" fill="#D41019"/>
<path d="M5.73222 96.3417V95.456L8.24498 92.5C8.69097 91.9837 8.93028 91.4784 8.93028 90.8753V90.6851C8.93028 90.1689 8.60395 89.7667 7.88602 89.7667C7.2116 89.7667 6.83087 90.158 6.83087 90.7611V90.9622H5.55273V90.6905C5.55273 89.3701 6.57525 88.7072 7.99479 88.7072C9.51768 88.7072 10.2954 89.6146 10.2954 90.8263C10.2954 92.2283 9.33276 93.1248 8.4571 94.1084L7.48354 95.1951V95.2169H10.3988V96.3471H5.72678L5.73222 96.3417Z" fill="#D41019"/>
</g>
<defs>
<clipPath id="clip0_2059_9501">
<rect width="72" height="96.4286" fill="white"/>
</clipPath>
</defs>
</svg>
