<svg width="130" height="130" viewBox="0 0 130 130" fill="none" xmlns="http://www.w3.org/2000/svg">
<rect width="130" height="130" rx="65" fill="#F2F5F9"/>
<path opacity="0.01" d="M37.6328 37.6309H92.3697V92.3677H37.6328V37.6309Z" fill="#C4C4C4"/>
<path fill-rule="evenodd" clip-rule="evenodd" d="M43.6547 41.0527C42.2188 41.0527 41.0547 42.2168 41.0547 43.6527V82.1054C41.0547 82.1055 41.0547 82.1055 41.0547 82.1056C41.0547 85.8844 44.118 88.9477 47.8968 88.9477C51.6756 88.9477 54.7389 85.8844 54.7389 82.1056C54.7389 82.1055 54.7389 82.1055 54.7389 82.1054H82.1075V43.6527C82.1075 42.2168 80.9434 41.0527 79.5074 41.0527H43.6547Z" fill="#94B9FF"/>
<path d="M54.7405 78.6816C54.7405 85.6948 50.0037 88.4459 47.8984 88.9448C57.3721 88.8735 77.5827 88.731 82.6353 88.731C87.6879 88.731 88.9511 82.0314 88.9511 78.6816H54.7405Z" fill="#2057FF"/>
<path fill-rule="evenodd" clip-rule="evenodd" d="M52.5518 53.7421C53.1015 53.5758 53.682 53.8867 53.8483 54.4365L57.4433 66.3257L60.5938 54.4704C60.7127 54.023 61.1131 53.708 61.576 53.6978C62.0389 53.6876 62.4528 53.9847 62.5913 54.4265L66.377 66.5046L69.8132 54.4524C69.9706 53.9 70.5461 53.5799 71.0985 53.7374C71.6508 53.8949 71.9709 54.4703 71.8134 55.0227L67.4243 70.4174C67.2983 70.8594 66.8971 71.1662 66.4376 71.1722C65.9781 71.1782 65.5692 70.8818 65.4317 70.4433L61.6812 58.4773L58.513 70.3994C58.3936 70.8487 57.9904 71.1642 57.5255 71.1721C57.0606 71.18 56.647 70.8784 56.5124 70.4333L51.8573 55.0386C51.691 54.4888 52.002 53.9083 52.5518 53.7421Z" fill="white"/>
<path fill-rule="evenodd" clip-rule="evenodd" d="M50.2734 59.8681C50.2734 59.2937 50.7391 58.8281 51.3134 58.8281H71.8398C72.4141 58.8281 72.8798 59.2937 72.8798 59.8681C72.8798 60.4425 72.4141 60.9081 71.8398 60.9081H51.3134C50.7391 60.9081 50.2734 60.4425 50.2734 59.8681Z" fill="white"/>
</svg>
