<svg width="150" height="150" viewBox="0 0 150 150" fill="none" xmlns="http://www.w3.org/2000/svg">
<rect width="150" height="150" rx="75" fill="#F2F5F9"/>
<path fill-rule="evenodd" clip-rule="evenodd" d="M98.1493 62.2404C96.6929 61.3117 94.873 60.9457 93.0985 61.2507C91.8738 61.4612 90.7104 60.639 90.4999 59.4143C90.2895 58.1896 91.1116 57.0262 92.3363 56.8157C95.1862 56.3259 98.1414 56.9008 100.562 58.4417C101.77 59.2012 102.814 60.1844 103.624 61.341C104.434 62.4955 104.993 63.7977 105.261 65.1724C105.544 66.5424 105.531 67.9524 105.221 69.317C104.911 70.6837 104.312 71.9694 103.468 73.1005C102.633 74.2355 101.573 75.196 100.356 75.9341C99.1355 76.6737 97.7778 77.1777 96.3612 77.423L92.4873 78.0868C91.2625 78.2967 90.0995 77.4739 89.8896 76.2491C89.6798 75.0244 90.5025 73.8613 91.7273 73.6515L95.5932 72.9891C95.5925 72.9892 95.5938 72.989 95.5932 72.9891C96.4662 72.8376 97.2931 72.5284 98.0229 72.0859C98.7531 71.6433 99.3704 71.078 99.8462 70.4298L99.8577 70.4141C100.336 69.7745 100.664 69.0623 100.832 68.3212C101 67.5806 101.007 66.818 100.852 66.0754L100.845 66.042C100.701 65.2964 100.396 64.5757 99.9394 63.9239C99.4821 63.2715 98.8806 62.6994 98.1628 62.2489L98.1493 62.2404Z" fill="#2057FF"/>
<path d="M88.8961 88.3391C90.9504 86.1848 92.5793 83.6251 93.6894 80.8071C94.7994 77.9891 95.3687 74.9683 95.3645 71.9183V51H47.9961V71.9183C47.9919 74.9683 48.5612 77.9891 49.6712 80.8071C50.7813 83.6251 52.4102 86.1848 54.4645 88.3391" fill="#94B9FF"/>
<path d="M44 87.3984V90.6582C44 95.7832 48.2523 98.5548 53.523 98.5548H93.6875C99.0476 98.5548 103.211 95.7832 103.211 90.6582V87.3984H44Z" fill="#2057FF"/>
</svg>
