<svg width="130" height="130" viewBox="0 0 130 130" fill="none" xmlns="http://www.w3.org/2000/svg">
<rect width="130" height="130" rx="65" fill="#F2F5F9"/>
<path opacity="0.6" d="M88.9572 56.9238H41.0625V88.9494H88.9572V56.9238Z" fill="#94B9FF"/>
<path d="M37.6328 48.1895H48.5763V62.2502C48.5763 62.8628 48.4345 63.4694 48.159 64.0354C47.8836 64.6014 47.4798 65.1156 46.9708 65.5488C46.4618 65.982 45.8575 66.3256 45.1925 66.56C44.5275 66.7945 43.8147 66.9151 43.0948 66.9151C41.6444 66.9107 40.2552 66.4173 39.2314 65.543C38.2076 64.6686 37.6328 63.4846 37.6328 62.2502V48.1895Z" fill="#92C0FF"/>
<path d="M48.5781 48.1895H59.5022V62.2502C59.5022 63.4817 58.93 64.6633 57.9104 65.5372C56.8909 66.4111 55.5066 66.9064 54.0596 66.9151C52.6058 66.9151 51.2116 66.4236 50.1836 65.5488C49.1556 64.674 48.5781 63.4874 48.5781 62.2502V48.1895Z" fill="#2057FF"/>
<path d="M59.4922 48.1895H70.4357V62.2502C70.4357 62.8628 70.2939 63.4694 70.0184 64.0354C69.7429 64.6014 69.3392 65.1156 68.8302 65.5488C68.3212 65.982 67.7169 66.3256 67.0519 66.56C66.3868 66.7945 65.674 66.9151 64.9542 66.9151C63.5038 66.9107 62.1146 66.4173 61.0908 65.543C60.067 64.6686 59.4922 63.4846 59.4922 62.2502V48.1895Z" fill="#92C0FF"/>
<path d="M70.4804 48.1895H81.4239V62.2502C81.4239 62.8628 81.2821 63.4694 81.0066 64.0354C80.7311 64.6014 80.3274 65.1156 79.8184 65.5488C79.3094 65.982 78.7051 66.3256 78.0401 66.56C77.375 66.7945 76.6622 66.9151 75.9424 66.9151C74.4886 66.9151 73.0944 66.4236 72.0664 65.5488C71.0384 64.674 70.4609 63.4874 70.4609 62.2502V48.1895H70.4804Z" fill="#2057FF"/>
<path d="M81.4335 48.1895H92.377V62.2502C92.377 62.8628 92.2352 63.4694 91.9597 64.0354C91.6843 64.6014 91.2805 65.1156 90.7715 65.5488C90.2625 65.982 89.6582 66.3256 88.9932 66.56C88.3281 66.7945 87.6154 66.9151 86.8955 66.9151C85.4417 66.9151 84.0475 66.4236 83.0195 65.5488C81.9916 64.674 81.4141 63.4874 81.4141 62.2502V48.1895H81.4335Z" fill="#92C0FF"/>
<path d="M58.1641 77.0437C58.1641 74.1719 60.4922 71.8438 63.3641 71.8438H66.6483C69.5202 71.8438 71.8483 74.1719 71.8483 77.0437V88.949H58.1641V77.0437Z" fill="white"/>
</svg>
