<svg width="150" height="150" viewBox="0 0 150 150" fill="none" xmlns="http://www.w3.org/2000/svg">
<rect width="150" height="150" rx="75" fill="#F2F5F9"/>
<path opacity="0.01" d="M43.4209 43.4194H106.579V106.577H43.4209V43.4194Z" fill="#C4C4C4"/>
<path d="M79.415 83.352L80.0817 79.1689H78.6562L79.415 83.352Z" fill="#94B9FF"/>
<path d="M70.3878 83.7069L71.2672 79.1689H69.6636L70.3878 83.7069Z" fill="#94B9FF"/>
<path d="M84.5702 55.2001L88.2113 46.4692C88.9015 44.7953 88.1135 43.4194 86.4281 43.4194H63.5921C61.9124 43.4194 61.1186 44.7953 61.8262 46.4692L65.45 55.2001C65.45 55.2001 72.784 53.2726 84.5702 55.2001Z" fill="#2057FF"/>
<path d="M84.5664 57.6403C72.7802 55.7382 65.4462 57.6403 65.4462 57.6403C54.3215 60.9311 47.3672 72.921 47.3672 84.2388C47.3672 93.9017 57.0998 102.385 57.0998 102.385C59.7286 104.693 64.6409 106.576 68.0289 106.576H82.0124C85.3717 106.576 90.2782 104.674 92.9415 102.385C92.9415 102.385 102.68 93.8764 102.68 84.2134C102.651 72.921 95.6853 60.9311 84.5664 57.6403ZM86.0907 79.1981H83.4562L81.0863 87.3139C80.6664 88.2206 80.2695 88.6264 79.539 88.6391C78.82 88.6391 78.5151 88.3982 77.9801 87.371L75.2766 79.1727H74.7302L71.8081 87.4154C71.4054 88.1699 70.9683 88.6835 70.2665 88.6835H70.2205C69.5015 88.6835 69.1218 88.2079 68.6904 87.3583L66.2975 79.1664H63.9219C63.5061 79.1391 63.1155 78.9379 62.8299 78.6038C62.5442 78.2697 62.3852 77.8279 62.3852 77.3688C62.3852 76.9097 62.5442 76.468 62.8299 76.1339C63.1155 75.7998 63.5061 75.5985 63.9219 75.5713H65.4174L64.7157 72.7117C64.6201 72.2574 64.6882 71.7799 64.9055 71.3798C65.1229 70.9797 65.4727 70.6881 65.8811 70.5665C66.2896 70.4449 66.7249 70.5028 67.0955 70.7279C67.4661 70.9529 67.7429 71.3277 67.8679 71.7733L68.794 75.5776H72.343L73.4935 71.6909C73.6026 71.3286 73.8133 71.0139 74.0952 70.7922C74.3772 70.5705 74.7157 70.4533 75.062 70.4576C75.4083 70.4618 75.7444 70.5872 76.0218 70.8157C76.2992 71.0443 76.5036 71.3641 76.6054 71.7289L77.6695 75.5776H80.9598L81.8916 71.7733C82.0045 71.3134 82.2785 70.9218 82.6534 70.6845C83.0282 70.4473 83.4732 70.384 83.8905 70.5084C84.3077 70.6328 84.663 70.9349 84.8782 71.3481C85.0934 71.7613 85.1509 72.2518 85.038 72.7117L84.3363 75.5713H86.0619C86.4777 75.5985 86.8683 75.7998 87.1539 76.1339C87.4396 76.468 87.5986 76.9097 87.5986 77.3688C87.5986 77.8279 87.4396 78.2697 87.1539 78.6038C86.8683 78.9379 86.4777 79.1391 86.0619 79.1664L86.0907 79.1981Z" fill="#94B9FF"/>
</svg>
