<svg width="150" height="150" viewBox="0 0 150 150" fill="none" xmlns="http://www.w3.org/2000/svg">
<rect width="150" height="150" rx="75" fill="#F2F5F9"/>
<path opacity="0.01" d="M43.4224 43.4209H106.58V106.579H43.4224V43.4209Z" fill="#C4C4C4"/>
<path fill-rule="evenodd" clip-rule="evenodd" d="M50.3687 47.3701C48.7118 47.3701 47.3687 48.7133 47.3687 50.3701V94.7386C47.3687 94.7386 47.3687 94.7387 47.3687 94.7388C47.3687 99.0989 50.9033 102.634 55.2634 102.634C59.6236 102.634 63.1582 99.0989 63.1582 94.7388C63.1582 94.7387 63.1582 94.7386 63.1582 94.7386H94.7372V50.3701C94.7372 48.7133 93.3941 47.3701 91.7372 47.3701H50.3687Z" fill="#94B9FF"/>
<path d="M63.1589 90.7896C63.1589 98.8817 57.6933 102.056 55.2642 102.632C66.1953 102.549 89.5152 102.385 95.3451 102.385C101.175 102.385 102.633 94.6547 102.633 90.7896H63.1589Z" fill="#2057FF"/>
<path fill-rule="evenodd" clip-rule="evenodd" d="M60.6347 62.0131C61.2691 61.8213 61.9389 62.18 62.1307 62.8144L66.2789 76.5327L69.914 62.8536C70.0512 62.3372 70.5132 61.9738 71.0473 61.962C71.5814 61.9503 72.059 62.293 72.2188 62.8028L76.5869 76.7391L80.5517 62.8327C80.7334 62.1954 81.3974 61.826 82.0348 62.0077C82.6721 62.1894 83.0415 62.8534 82.8598 63.4908L77.7953 81.2539C77.6499 81.7639 77.1871 82.1179 76.6569 82.1248C76.1267 82.1317 75.6548 81.7898 75.4962 81.2838L71.1687 67.4769L67.5131 81.2331C67.3753 81.7516 66.9101 82.1156 66.3737 82.1247C65.8372 82.1338 65.36 81.7858 65.2047 81.2722L59.8334 63.5091C59.6416 62.8747 60.0004 62.2049 60.6347 62.0131Z" fill="white"/>
<path fill-rule="evenodd" clip-rule="evenodd" d="M58.0093 69.0809C58.0093 68.4181 58.5465 67.8809 59.2093 67.8809H82.8935C83.5562 67.8809 84.0935 68.4181 84.0935 69.0809C84.0935 69.7436 83.5562 70.2809 82.8935 70.2809H59.2093C58.5465 70.2809 58.0093 69.7436 58.0093 69.0809Z" fill="white"/>
</svg>
