<svg width="130" height="130" viewBox="0 0 130 130" fill="none" xmlns="http://www.w3.org/2000/svg">
<rect width="130" height="130" rx="65" fill="#F2F5F9"/>
<path opacity="0.01" d="M37.6328 37.6309H92.3697V92.3677H37.6328V37.6309Z" fill="#C4C4C4"/>
<path d="M68.8294 72.2386L69.4073 68.6133H68.1719L68.8294 72.2386Z" fill="#94B9FF"/>
<path d="M61.0026 72.5482L61.7648 68.6152H60.375L61.0026 72.5482Z" fill="#94B9FF"/>
<path d="M73.2951 47.8408L76.4507 40.274C77.049 38.8233 76.366 37.6309 74.9053 37.6309H55.1141C53.6584 37.6309 52.9705 38.8233 53.5836 40.274L56.7243 47.8408C56.7243 47.8408 63.0804 46.1703 73.2951 47.8408Z" fill="#2057FF"/>
<path d="M73.294 49.9551C63.0793 48.3066 56.7232 49.9551 56.7232 49.9551C47.0818 52.8071 41.0547 63.1983 41.0547 73.0071C41.0547 81.3816 49.4896 88.7341 49.4896 88.7341C51.7679 90.7343 56.0252 92.3664 58.9615 92.3664H71.0805C73.9919 92.3664 78.2443 90.7178 80.5524 88.7341C80.5524 88.7341 88.9924 81.3597 88.9924 72.9851C88.9674 63.1983 82.9304 52.8071 73.294 49.9551ZM74.615 68.6385H72.3318L70.2779 75.6722C69.914 76.458 69.57 76.8097 68.9369 76.8207C68.3138 76.8207 68.0495 76.6119 67.5859 75.7217L65.2429 68.6165H64.7693L62.2368 75.7601C61.8878 76.4141 61.509 76.8592 60.9008 76.8592H60.8609C60.2377 76.8592 59.9087 76.447 59.5348 75.7107L57.461 68.611H55.4021C55.0418 68.5874 54.7032 68.413 54.4557 68.1234C54.2081 67.8339 54.0703 67.451 54.0703 67.0531C54.0703 66.6553 54.2081 66.2724 54.4557 65.9828C54.7032 65.6933 55.0418 65.5189 55.4021 65.4953H56.6982L56.09 63.017C56.0072 62.6232 56.0662 62.2094 56.2546 61.8626C56.443 61.5159 56.7461 61.2632 57.1001 61.1578C57.4541 61.0524 57.8314 61.1025 58.1526 61.2976C58.4737 61.4927 58.7137 61.8175 58.8219 62.2037L59.6246 65.5008H62.7004L63.6975 62.1323C63.792 61.8183 63.9746 61.5455 64.219 61.3534C64.4633 61.1612 64.7567 61.0597 65.0569 61.0634C65.357 61.067 65.6483 61.1757 65.8887 61.3738C66.1291 61.5718 66.3062 61.849 66.3945 62.1652L67.3167 65.5008H70.1682L70.9758 62.2037C71.0737 61.8051 71.3112 61.4657 71.636 61.2601C71.9609 61.0545 72.3466 60.9996 72.7082 61.1074C73.0698 61.2153 73.3777 61.477 73.5643 61.8352C73.7508 62.1933 73.8006 62.6184 73.7027 63.017L73.0946 65.4953H74.5901C74.9504 65.5189 75.289 65.6933 75.5365 65.9828C75.7841 66.2724 75.9219 66.6553 75.9219 67.0531C75.9219 67.451 75.7841 67.8339 75.5365 68.1234C75.289 68.413 74.9504 68.5874 74.5901 68.611L74.615 68.6385Z" fill="#94B9FF"/>
</svg>
