<svg width="40" height="40" viewBox="0 0 40 40" fill="none" xmlns="http://www.w3.org/2000/svg">
<g clip-path="url(#clip0_2827_2785)">
<path d="M32.9167 0H7.08333C3.17132 0 0 3.25263 0 7.26496V32.735C0 36.7474 3.17132 40 7.08333 40H32.9167C36.8287 40 40 36.7474 40 32.735V7.26496C40 3.25263 36.8287 0 32.9167 0Z" fill="#470137"/>
<path d="M21.0296 10.5193L16.0385 18.9684L21.3784 27.9404C21.4126 28.0031 21.4222 28.077 21.4052 28.1467C21.3871 28.2113 21.3247 28.1706 21.2174 28.1887H17.4071C17.1387 28.1887 16.9509 28.179 16.8435 27.9954C16.4855 27.2799 16.1277 26.5689 15.7702 25.8625C15.4121 25.1564 15.032 24.4362 14.6298 23.702C14.2273 22.9685 13.8293 22.2254 13.4357 21.4728H13.4089C13.0508 22.2069 12.6796 22.9408 12.2953 23.6745C11.9104 24.4086 11.5303 25.1379 11.1549 25.8625C10.7792 26.5875 10.3946 27.3076 10.0011 28.0229C9.92938 28.1881 9.80398 28.2051 9.62535 28.2051H5.94924C5.87795 28.2051 5.83767 28.234 5.82847 28.1605C5.81837 28.0934 5.83271 28.0248 5.86875 27.9679L11.0475 19.2436L6.00287 10.4918C5.94924 10.4187 5.94029 10.3591 5.97601 10.3129C5.99583 10.2894 6.02069 10.271 6.04864 10.2591C6.07658 10.2471 6.10686 10.242 6.13706 10.2441H9.92051C10.003 10.2394 10.0855 10.2535 10.162 10.2854C10.2262 10.3227 10.2813 10.3745 10.323 10.4368C10.645 11.1708 11.0028 11.9047 11.3963 12.6385C11.7897 13.3725 12.1877 14.0972 12.5904 14.8127C12.9929 15.5282 13.3641 16.2529 13.704 16.9868H13.7309C14.0885 16.2347 14.4507 15.5008 14.8176 14.7852C15.1841 14.0696 15.5598 13.3494 15.9446 12.6247C16.3291 11.9001 16.7003 11.18 17.0582 10.4643C17.0788 10.3964 17.1157 10.3349 17.1655 10.2854C17.2318 10.2509 17.3063 10.2366 17.3802 10.2441H20.8954C20.9292 10.2355 20.965 10.239 20.9967 10.254C21.0284 10.269 21.0541 10.2947 21.0698 10.3267C21.0854 10.3587 21.0899 10.3952 21.0826 10.4302C21.0753 10.4652 21.0566 10.4967 21.0296 10.5193L21.0296 10.5193Z" fill="#FF61F6"/>
<path d="M28.7323 28.5458C27.4972 28.5651 26.2734 28.3018 25.15 27.7752C24.1034 27.2784 23.2286 26.4675 22.6411 25.4496C22.0327 24.4133 21.7286 23.1152 21.7288 21.5554C21.7187 20.2923 22.0333 19.0487 22.6411 17.9501C23.2671 16.831 24.1878 15.9154 25.2976 15.308C26.4602 14.6475 27.8645 14.3172 29.5104 14.3173C29.5997 14.3173 29.716 14.3218 29.8592 14.331C30.0022 14.3405 30.1721 14.3542 30.3691 14.3723V8.95059C30.3691 8.82242 30.4228 8.75794 30.5301 8.75794H33.9111C33.9329 8.75473 33.9552 8.75679 33.9762 8.76395C33.9971 8.77112 34.0162 8.78318 34.0318 8.7992C34.0474 8.81522 34.0592 8.83475 34.0662 8.85624C34.0732 8.87774 34.0752 8.9006 34.0721 8.92304V25.1882C34.0721 25.5004 34.0855 25.8398 34.1123 26.2065C34.1392 26.5737 34.1615 26.9039 34.1794 27.1972C34.1827 27.2544 34.1691 27.3113 34.1404 27.3604C34.1116 27.4095 34.0691 27.4485 34.0184 27.4725C33.1462 27.8456 32.2377 28.1223 31.3083 28.2981C30.4585 28.4589 29.5964 28.5419 28.7323 28.5458ZM30.3691 25.1331V17.6198C30.224 17.5795 30.0759 17.5519 29.9263 17.5372C29.7436 17.5184 29.5599 17.5092 29.3762 17.5097C28.7251 17.5031 28.0816 17.6539 27.4979 17.9501C26.9294 18.2399 26.444 18.6761 26.0892 19.216C25.7223 19.7665 25.539 20.4912 25.5391 21.3902C25.526 21.9902 25.6215 22.5874 25.8208 23.1516C25.983 23.6062 26.2393 24.0193 26.5722 24.3625C26.8908 24.6783 27.2766 24.9138 27.6991 25.0506C28.1454 25.1988 28.6119 25.2731 29.0811 25.2707C29.3314 25.2707 29.5639 25.2616 29.7787 25.2432C29.9787 25.2278 30.1766 25.1909 30.3691 25.1331Z" fill="#FF61F6"/>
</g>
<defs>
<clipPath id="clip0_2827_2785">
<rect width="40" height="40" fill="white"/>
</clipPath>
</defs>
</svg>
