<svg width="130" height="130" viewBox="0 0 130 130" fill="none" xmlns="http://www.w3.org/2000/svg">
<rect width="130" height="130" rx="65" fill="#F2F5F9"/>
<path opacity="0.01" d="M37.6328 37.6309H92.3697V92.3677H37.6328V37.6309Z" fill="#C4C4C4"/>
<path fill-rule="evenodd" clip-rule="evenodd" d="M64.998 38.418C66.0749 38.4135 66.9516 39.2829 66.9561 40.3599L67.1325 82.8523C67.1325 85.075 66.1231 87.1455 64.4315 88.6282C62.7484 90.1037 60.5145 90.8967 58.2306 90.8969C57.0941 90.8987 55.9636 90.7044 54.9018 90.3206C53.8391 89.9364 52.8581 89.367 52.0203 88.6342C51.182 87.9009 50.501 87.0159 50.0306 86.0218C49.5596 85.0266 49.3126 83.9487 49.3126 82.8523C49.3126 81.7754 50.1856 80.9023 51.2626 80.9023C52.3395 80.9024 53.2126 81.7754 53.2126 82.8524C53.2126 83.3589 53.3261 83.8682 53.5558 84.3535C53.786 84.84 54.1319 85.2998 54.588 85.6987C55.0445 86.0981 55.5998 86.4259 56.2276 86.6528C56.8554 86.8798 57.5352 86.9982 58.2262 86.9969L58.2298 86.9969C59.6335 86.9969 60.9363 86.5058 61.8607 85.6955C62.7759 84.8933 63.2314 83.8648 63.2325 82.8558C63.2325 82.8547 63.2325 82.8535 63.2325 82.8523L63.0561 40.3761C63.0516 39.2991 63.921 38.4225 64.998 38.418ZM58.2306 90.8969C58.2303 90.8969 58.2308 90.8969 58.2306 90.8969L58.2298 88.9469L58.2335 90.8969C58.2325 90.8969 58.2315 90.8969 58.2306 90.8969Z" fill="#94B9FF"/>
<path d="M75.2608 67.3161C75.2608 54.3219 70.6692 43.7871 64.9896 43.7871C59.3101 43.7871 54.7344 54.3219 54.7344 67.3161C54.7344 67.4683 54.7344 67.595 54.7344 67.7345L58.4126 66.5075C62.6818 65.0833 67.2978 65.0822 71.5677 66.5044L75.2608 67.7345C75.2608 67.5443 75.2608 67.4176 75.2608 67.3161Z" fill="#2057FF"/>
<path d="M37.6328 67.7364C41.7381 49.947 57.589 44.3592 65.0012 43.7891C56.7907 45.1575 54.7381 60.3242 54.7381 67.7364C49.2644 62.2627 41.0539 65.4557 37.6328 67.7364Z" fill="#94B9FF"/>
<path d="M92.3672 67.7345C88.2619 49.945 72.411 44.3573 64.9988 43.7871C73.2093 45.1555 75.2619 60.3222 75.2619 67.7345C80.7356 62.2608 88.9461 65.4538 92.3672 67.7345Z" fill="#94B9FF"/>
</svg>
