<svg width="150" height="150" viewBox="0 0 150 150" fill="none" xmlns="http://www.w3.org/2000/svg">
<rect width="150" height="150" rx="75" fill="#F2F5F9"/>
<path fill-rule="evenodd" clip-rule="evenodd" d="M88.8154 43.4194C94.2664 43.4194 98.6846 51.5701 98.6846 57.1105C98.6846 61.2945 96.169 65.3622 92.5939 67.1043H92.7603L94.7339 98.6835C94.7339 101.315 93.5497 106.578 88.8129 106.578C84.0761 106.578 82.8918 101.315 82.8918 98.6835L84.8655 67.1043H85.0373C81.4623 65.3615 78.9478 61.2906 78.9478 57.1105C78.9478 51.5716 83.3644 43.4194 88.8154 43.4194Z" fill="#2057FF"/>
<path fill-rule="evenodd" clip-rule="evenodd" d="M51.3184 59.209H71.0526V45.3544C71.0526 44.8408 70.8076 44.3483 70.3714 43.9851C69.9352 43.622 69.3436 43.418 68.7267 43.418C68.1098 43.418 67.5182 43.622 67.082 43.9851C66.6458 44.3483 66.4008 44.8408 66.4008 45.3544L66.4713 53.4747C66.4728 53.6331 66.4367 53.7902 66.3649 53.9368C66.2931 54.0835 66.1872 54.217 66.0532 54.3294C65.9192 54.4418 65.7598 54.5311 65.5842 54.592C65.4086 54.6529 65.2202 54.6842 65.03 54.6842H64.9576C64.5751 54.6838 64.2085 54.557 63.9383 54.3317C63.668 54.1064 63.5162 53.801 63.5162 53.4826V45.3544C63.5163 45.0971 63.4547 44.8423 63.3351 44.6051C63.2154 44.3678 63.0401 44.1528 62.8194 43.9726C62.5988 43.7924 62.3371 43.6507 62.0499 43.5558C61.7626 43.4608 61.4555 43.4145 61.1464 43.4196C59.8843 43.4386 58.8586 44.3735 58.8586 45.4195V53.2985C58.8589 53.4562 58.8218 53.6123 58.7494 53.758C58.6771 53.9037 58.5709 54.036 58.437 54.1475C58.3032 54.259 58.1442 54.3474 57.9692 54.4076C57.7942 54.4678 57.6067 54.4987 57.4173 54.4985C57.2281 54.4987 57.0407 54.4679 56.8659 54.4078C56.691 54.3476 56.5321 54.2594 56.3983 54.1481C56.2644 54.0368 56.1582 53.9046 56.0857 53.7591C56.0133 53.6136 55.976 53.4576 55.976 53.3001V45.4179C55.976 44.3719 54.9446 43.4386 53.6882 43.4196C53.3787 43.4145 53.0711 43.4609 52.7834 43.5562C52.4958 43.6515 52.2339 43.7936 52.0131 43.9743C51.7924 44.155 51.6172 44.3705 51.4979 44.6084C51.3786 44.8462 51.3176 45.1014 51.3184 45.3592V59.209ZM51.3164 59.2097C51.3164 61.1834 52.5006 65.5255 57.2375 67.1045L55.2638 98.6831C55.2638 101.315 56.448 106.578 61.1848 106.578C65.9217 106.578 67.1059 101.315 67.1059 98.6831L65.1322 67.1041H65.1314C69.8675 65.5249 71.0515 61.1833 71.0515 59.2097H61.1848H61.1831H51.3164Z" fill="#94B9FF"/>
</svg>
