<svg width="150" height="150" viewBox="0 0 150 150" fill="none" xmlns="http://www.w3.org/2000/svg">
<rect width="150" height="150" rx="75" fill="#F2F5F9"/>
<path opacity="0.6" d="M102.636 65.6792H47.373V102.632H102.636V65.6792Z" fill="#94B9FF"/>
<path d="M43.4238 55.6025H56.0509V71.8265C56.0509 72.5334 55.8873 73.2333 55.5695 73.8863C55.2516 74.5394 54.7857 75.1327 54.1984 75.6326C53.6111 76.1324 52.9139 76.5289 52.1465 76.7994C51.3792 77.0698 50.5567 77.2091 49.7262 77.2091C48.0526 77.204 46.4496 76.6347 45.2684 75.6258C44.0871 74.617 43.4238 73.2508 43.4238 71.8265V55.6025Z" fill="#92C0FF"/>
<path d="M56.0522 55.6025H68.6569V71.8265C68.6569 73.2475 67.9967 74.6108 66.8203 75.6191C65.6439 76.6275 64.0466 77.199 62.377 77.2091C60.6996 77.2091 59.0908 76.642 57.9047 75.6326C56.7186 74.6231 56.0522 73.2541 56.0522 71.8265V55.6025Z" fill="#2057FF"/>
<path d="M68.6499 55.6025H81.277V71.8265C81.277 72.5334 81.1134 73.2333 80.7955 73.8863C80.4777 74.5394 80.0118 75.1327 79.4245 75.6326C78.8372 76.1324 78.14 76.5289 77.3726 76.7994C76.6053 77.0698 75.7828 77.2091 74.9522 77.2091C73.2787 77.204 71.6757 76.6347 70.4944 75.6258C69.3132 74.617 68.6499 73.2508 68.6499 71.8265V55.6025Z" fill="#92C0FF"/>
<path d="M81.33 55.6025H93.9571V71.8265C93.9571 72.5334 93.7935 73.2333 93.4757 73.8863C93.1578 74.5394 92.692 75.1327 92.1047 75.6326C91.5173 76.1324 90.8201 76.5289 90.0528 76.7994C89.2854 77.0698 88.463 77.2091 87.6324 77.2091C85.9549 77.2091 84.3462 76.642 83.1601 75.6326C81.974 74.6231 81.3076 73.2541 81.3076 71.8265V55.6025H81.33Z" fill="#2057FF"/>
<path d="M93.9614 55.6025H106.588V71.8265C106.588 72.5334 106.425 73.2333 106.107 73.8863C105.789 74.5394 105.323 75.1327 104.736 75.6326C104.149 76.1324 103.451 76.5289 102.684 76.7994C101.917 77.0698 101.094 77.2091 100.264 77.2091C98.5863 77.2091 96.9776 76.642 95.7914 75.6326C94.6053 74.6231 93.939 73.2541 93.939 71.8265V55.6025H93.9614Z" fill="#92C0FF"/>
<path d="M67.1104 88.897C67.1104 85.5833 69.7966 82.897 73.1104 82.897H76.8998C80.2135 82.897 82.8998 85.5833 82.8998 88.897V102.634H67.1104V88.897Z" fill="white"/>
</svg>
