<svg width="40" height="40" viewBox="0 0 40 40" fill="none" xmlns="http://www.w3.org/2000/svg">
<g clip-path="url(#clip0_2827_2795)">
<rect width="40" height="40" rx="8" fill="white"/>
<rect width="40" height="40" rx="8" fill="black"/>
<g clip-path="url(#clip1_2827_2795)">
<path d="M16.1623 31.8359C18.3355 31.8359 20.0997 30.0717 20.0997 27.8985V23.9611H16.1623C13.9891 23.9611 12.2249 25.7253 12.2249 27.8985C12.2249 30.0717 13.9891 31.8359 16.1623 31.8359Z" fill="#0ACF83"/>
<path d="M12.2207 20.0196C12.2207 17.8463 13.9849 16.0822 16.1581 16.0822H20.0956V23.9611H16.1581C13.9849 23.9611 12.2207 22.1969 12.2207 20.0237V20.0196Z" fill="#A259FF"/>
<path d="M12.2207 12.1405C12.2207 9.96732 13.9849 8.20312 16.1581 8.20312H20.0956V16.0821H16.1581C13.9849 16.0821 12.2207 14.3179 12.2207 12.1447V12.1405Z" fill="#F24E1E"/>
<path d="M20.0626 8.20312H24C26.1733 8.20312 27.9375 9.96732 27.9375 12.1406C27.9375 14.3138 26.1733 16.078 24 16.078H20.0626V8.20312Z" fill="#FF7262"/>
<path d="M27.9788 20.0196C27.9788 22.1928 26.2146 23.957 24.0414 23.957C21.8681 23.957 20.0626 22.1928 20.0626 20.0196C20.0626 17.8463 21.8268 16.0822 24 16.0822C26.1733 16.0822 27.9375 17.8463 27.9375 20.0196H27.9788Z" fill="#1ABCFE"/>
</g>
</g>
<defs>
<clipPath id="clip0_2827_2795">
<rect width="40" height="40" rx="5" fill="white"/>
</clipPath>
<clipPath id="clip1_2827_2795">
<rect width="23.6328" height="23.6328" fill="white" transform="translate(8.20312 8.20312)"/>
</clipPath>
</defs>
</svg>
