<svg width="130" height="130" viewBox="0 0 130 130" fill="none" xmlns="http://www.w3.org/2000/svg">
<rect width="130" height="130" rx="65" fill="#F2F5F9"/>
<path fill-rule="evenodd" clip-rule="evenodd" d="M85.0617 53.9426C83.7995 53.1378 82.2223 52.8206 80.6844 53.0849C79.623 53.2673 78.6147 52.5548 78.4323 51.4934C78.2499 50.432 78.9624 49.4237 80.0238 49.2413C82.4937 48.8168 85.0549 49.315 87.1526 50.6505C88.1996 51.3087 89.1042 52.1608 89.8067 53.1631C90.5081 54.1637 90.9927 55.2923 91.2248 56.4837C91.4705 57.671 91.4588 58.893 91.1904 60.0757C90.9216 61.2602 90.4025 62.3744 89.6713 63.3547C88.9478 64.3384 88.0291 65.1709 86.9739 65.8105C85.9164 66.4515 84.7397 66.8883 83.512 67.1009L80.1546 67.6762C79.0932 67.8581 78.0852 67.1451 77.9033 66.0836C77.7214 65.0221 78.4345 64.0141 79.496 63.8322L82.8464 63.2582C82.8458 63.2583 82.847 63.2581 82.8464 63.2582C83.6031 63.1269 84.3197 62.8589 84.9522 62.4754C85.585 62.0919 86.12 61.6019 86.5324 61.0401L86.5423 61.0266C86.9567 60.4722 87.2413 59.855 87.3871 59.2127C87.5327 58.5708 87.5384 57.9099 87.4041 57.2663L87.398 57.2374C87.2733 56.5912 87.0091 55.9666 86.6131 55.4016C86.2168 54.8362 85.6955 54.3405 85.0734 53.95L85.0617 53.9426Z" fill="#2057FF"/>
<path d="M77.0483 76.5618C78.8286 74.6947 80.2403 72.4763 81.2024 70.034C82.1644 67.5917 82.6578 64.9737 82.6542 62.3303V44.2012H41.6016V62.3303C41.5979 64.9737 42.0913 67.5917 43.0534 70.034C44.0154 72.4763 45.4272 74.6947 47.2075 76.5618" fill="#94B9FF"/>
<path d="M38.1328 75.7461V78.5712C38.1328 83.0129 41.8181 85.415 46.3861 85.415H81.1953C85.8407 85.415 89.4486 83.0129 89.4486 78.5712V75.7461H38.1328Z" fill="#2057FF"/>
</svg>
