<svg width="130" height="130" viewBox="0 0 130 130" fill="none" xmlns="http://www.w3.org/2000/svg">
<rect width="130" height="130" rx="65" fill="#F2F5F9"/>
<path fill-rule="evenodd" clip-rule="evenodd" d="M76.966 37.6309C81.6902 37.6309 85.5193 44.6948 85.5193 49.4965C85.5193 53.1226 83.3391 56.6479 80.2407 58.1578H80.3849L82.0954 85.5264C82.0954 87.8071 81.0691 92.3686 76.9639 92.3686C72.8586 92.3686 71.8323 87.8071 71.8323 85.5264L73.5428 58.1578H73.6916C70.5933 56.6474 68.4141 53.1192 68.4141 49.4965C68.4141 44.6961 72.2419 37.6309 76.966 37.6309Z" fill="#2057FF"/>
<path fill-rule="evenodd" clip-rule="evenodd" d="M44.4705 51.3145H61.5735V39.3071C61.5735 38.862 61.3611 38.4352 60.9831 38.1204C60.605 37.8057 60.0923 37.6289 59.5577 37.6289C59.023 37.6289 58.5103 37.8057 58.1323 38.1204C57.7542 38.4352 57.5419 38.862 57.5419 39.3071L57.603 46.3448C57.6043 46.482 57.573 46.6181 57.5108 46.7453C57.4486 46.8724 57.3568 46.988 57.2407 47.0855C57.1245 47.1829 56.9864 47.2603 56.8342 47.313C56.682 47.3658 56.5187 47.393 56.3539 47.393H56.2911C55.9596 47.3926 55.6419 47.2827 55.4077 47.0875C55.1735 46.8922 55.0419 46.6276 55.0419 46.3516V39.3071C55.042 39.0841 54.9886 38.8634 54.8849 38.6577C54.7812 38.4521 54.6293 38.2657 54.438 38.1096C54.2468 37.9534 54.02 37.8306 53.7711 37.7483C53.5221 37.666 53.2559 37.6259 52.9881 37.6303C51.8943 37.6468 51.0053 38.457 51.0053 39.3636V46.1921C51.0056 46.3287 50.9734 46.464 50.9107 46.5902C50.848 46.7165 50.756 46.8312 50.64 46.9278C50.5239 47.0244 50.3861 47.1011 50.2345 47.1533C50.0828 47.2055 49.9203 47.2322 49.7562 47.232C49.5922 47.2322 49.4298 47.2055 49.2783 47.1534C49.1268 47.1013 48.989 47.0248 48.873 46.9283C48.757 46.8319 48.665 46.7173 48.6022 46.5912C48.5394 46.4651 48.5071 46.33 48.5071 46.1934V39.3622C48.5071 38.4557 47.6132 37.6468 46.5243 37.6303C46.2561 37.6259 45.9895 37.6661 45.7402 37.7487C45.4909 37.8313 45.2639 37.9545 45.0726 38.111C44.8813 38.2676 44.7295 38.4545 44.6261 38.6606C44.5227 38.8667 44.4698 39.0879 44.4705 39.3113V51.3145ZM44.4688 51.3151C44.4688 53.0256 45.4951 56.7888 49.6003 58.1572L47.8898 85.5253C47.8898 87.806 48.9161 92.3674 53.0214 92.3674C57.1267 92.3674 58.153 87.806 58.153 85.5253L56.4425 58.1569H56.4418C60.5463 56.7883 61.5725 53.0255 61.5725 51.3151H53.0214H53.0199H44.4688Z" fill="#94B9FF"/>
</svg>
