<svg width="130" height="130" viewBox="0 0 130 130" fill="none" xmlns="http://www.w3.org/2000/svg">
<rect width="130" height="130" rx="65" fill="#F2F5F9"/>
<path d="M92.3697 55.3726C92.3697 53.7399 91.7161 52.1741 90.5527 51.0196C89.3893 49.8651 87.8114 49.2166 86.1661 49.2166H43.8363C42.191 49.2166 40.6131 49.8651 39.4498 51.0196C38.2864 52.1741 37.6328 53.7399 37.6328 55.3726C37.6328 57.0053 38.2864 58.5711 39.4498 59.7256C40.6131 60.8801 42.191 61.5287 43.8363 61.5287C43.8143 61.7599 43.8143 61.9927 43.8363 62.2239L45.4273 79.6057C45.6401 81.5686 46.5669 83.387 48.0341 84.7203C49.5012 86.0536 51.408 86.8101 53.397 86.8481H76.7514C78.7388 86.8097 80.6437 86.0527 82.1085 84.7191C83.5732 83.3856 84.4971 81.5673 84.7065 79.6057L86.2975 62.2239C86.3121 61.9924 86.3121 61.7602 86.2975 61.5287C87.9187 61.4909 89.4609 60.8261 90.5952 59.6761C91.7295 58.5261 92.3663 56.9818 92.3697 55.3726Z" fill="#94B9FF"/>
<path d="M73.5625 66.7086C73.5625 65.7639 74.3283 64.998 75.273 64.998C76.2177 64.998 76.9836 65.7639 76.9836 66.7086V75.2612C76.9836 76.2059 76.2177 76.9717 75.273 76.9717C74.3283 76.9717 73.5625 76.2059 73.5625 75.2612V66.7086Z" fill="white"/>
<path d="M63.2969 66.7086C63.2969 65.7639 64.0627 64.998 65.0074 64.998C65.9521 64.998 66.7179 65.7639 66.7179 66.7086V75.2612C66.7179 76.2059 65.9521 76.9717 65.0074 76.9717C64.0627 76.9717 63.2969 76.2059 63.2969 75.2612V66.7086Z" fill="white"/>
<path d="M53.0312 66.7086C53.0312 65.7639 53.7971 64.998 54.7418 64.998C55.6865 64.998 56.4523 65.7639 56.4523 66.7086V75.2612C56.4523 76.2059 55.6865 76.9717 54.7418 76.9717C53.7971 76.9717 53.0312 76.2059 53.0312 75.2612V66.7086Z" fill="white"/>
<path fill-rule="evenodd" clip-rule="evenodd" d="M60.811 40.9063C61.6215 41.6155 61.7037 42.8474 60.9945 43.6579L50.7769 55.3351C50.0677 56.1456 48.8358 56.2278 48.0253 55.5186C47.2148 54.8094 47.1327 53.5775 47.8419 52.767L58.0594 41.0898C58.7686 40.2793 60.0005 40.1972 60.811 40.9063Z" fill="#2057FF"/>
<path fill-rule="evenodd" clip-rule="evenodd" d="M69.9159 40.9063C70.7264 40.1972 71.9584 40.2793 72.6676 41.0898L82.8851 52.767C83.5943 53.5775 83.5121 54.8094 82.7017 55.5186C81.8912 56.2278 80.6592 56.1456 79.95 55.3351L69.7325 43.6579C69.0233 42.8474 69.1055 41.6155 69.9159 40.9063Z" fill="#2057FF"/>
</svg>
