<svg width="46" height="46" viewBox="0 0 46 46" fill="none" xmlns="http://www.w3.org/2000/svg">
<path d="M45.5 22.9646C45.5 35.3405 35.4282 45.3765 23 45.3765C10.5718 45.3765 0.5 35.3405 0.5 22.9646C0.5 10.5887 10.5718 0.552734 23 0.552734C35.4282 0.552734 45.5 10.5887 45.5 22.9646Z" fill="white" stroke="#EAEAEA"/>
<g clip-path="url(#clip0_988_37165)">
<path d="M21.7474 21.8318C21.7854 21.8278 21.8233 21.8216 21.8606 21.8133C22.0822 21.7774 22.2813 21.6577 22.4167 21.4787C22.5308 21.3768 22.6229 21.2525 22.6874 21.1139C22.752 20.9752 22.7876 20.8249 22.7922 20.672C22.8018 20.5357 22.7818 20.3989 22.7338 20.2709C22.6858 20.143 22.6109 20.0267 22.514 19.9303C22.4065 19.8341 22.2813 19.76 22.1451 19.7123C22.0089 19.6646 21.8645 19.6441 21.7205 19.6521C21.4503 19.6394 21.186 19.7335 20.9844 19.9137C20.8937 19.9963 20.8226 20.098 20.7764 20.2116C20.7302 20.3252 20.71 20.4478 20.7173 20.5702C20.727 20.8658 20.832 21.1504 21.0167 21.3814C21.0888 21.5136 21.1942 21.6245 21.3223 21.7035C21.4504 21.7825 21.5969 21.8268 21.7474 21.8318Z" fill="#D91550"/>
<path d="M31.449 27.3247C30.8006 27.3158 30.1571 27.439 29.5579 27.6871C28.9587 27.9351 28.4164 28.3026 27.9639 28.7672C27.7497 28.9823 27.5545 29.2155 27.3806 29.4644L27.3946 29.4811H27.3677C26.747 30.392 26.4491 31.4846 26.5214 32.5846C26.5937 33.6845 27.0321 34.7286 27.7668 35.5504C28.5014 36.3723 29.4901 36.9244 30.5751 37.1191C31.6601 37.3137 32.7792 37.1397 33.7537 36.6245C34.7283 36.1093 35.5023 35.2828 35.9525 34.2765C36.4027 33.2703 36.503 32.1423 36.2377 31.0723C35.9723 30.0024 35.3564 29.0521 34.4882 28.3729C33.62 27.6937 32.5493 27.3247 31.447 27.3247H31.449Z" fill="#D91550"/>
<path d="M13.5894 11.8423C12.4501 11.8426 11.3463 12.2379 10.4658 12.9609C9.58524 13.6839 8.98245 14.69 8.76043 15.8075C8.53842 16.925 8.71073 18.0848 9.24799 19.0895C9.78525 20.0942 10.6544 20.8817 11.7071 21.3175C12.7597 21.7534 13.9308 21.8106 15.021 21.4798C16.1113 21.149 17.0532 20.4504 17.6861 19.5031C18.319 18.5557 18.6038 17.4182 18.4921 16.2844C18.3804 15.1505 17.8792 14.0905 17.0736 13.2848C16.6215 12.82 16.0794 12.4525 15.4803 12.2044C14.8812 11.9564 14.2377 11.8332 13.5894 11.8423Z" fill="#D91550"/>
<path d="M23.0005 4.17188C19.0789 4.17187 15.2455 5.33457 11.9849 7.51325C8.72428 9.69194 6.18289 12.7887 4.68218 16.4117C3.18148 20.0348 2.78878 24.0214 3.55383 27.8675C4.31888 31.7137 6.20718 35.2466 8.98012 38.0196C11.7531 40.7925 15.2862 42.681 19.1324 43.4461C22.9785 44.2111 26.9651 43.8184 30.5882 42.3177C34.2112 40.817 37.3077 38.2756 39.4864 35.015C41.6651 31.7544 42.828 27.921 42.828 23.9995C42.828 18.7408 40.739 13.6975 37.0206 9.97911C33.3022 6.26071 28.2591 4.17188 23.0005 4.17188ZM37.9615 30.7804V32.2535C37.9615 33.9807 37.2753 35.6371 36.0541 36.8584C34.8328 38.0797 33.1766 38.7658 31.4494 38.7658C29.7223 38.7658 28.0658 38.0797 26.8446 36.8584C25.6233 35.6371 24.9371 33.9807 24.9371 32.2535C24.9261 31.2962 25.132 30.3489 25.539 29.4823H25.5195L24.6182 28.3884C24.2296 28.8141 23.7573 29.1551 23.2309 29.39C22.7044 29.6248 22.1353 29.7483 21.5588 29.753C20.6047 29.7875 19.6747 29.4478 18.9674 28.8064C18.6119 28.4803 18.3331 28.0798 18.1507 27.6333C17.9683 27.1867 17.8869 26.7053 17.9123 26.2236C17.9339 25.4897 18.159 24.7763 18.5624 24.1629C18.9658 23.5495 19.5317 23.0601 20.1969 22.7495C20.0394 22.5995 19.8987 22.4326 19.7777 22.2518C19.4389 21.8311 19.244 21.3128 19.2215 20.7731C19.2175 20.4253 19.2768 20.0796 19.3967 19.7531C19.0795 20.3511 18.6731 20.8973 18.1914 21.3729C17.2802 22.2806 16.1203 22.8979 14.8584 23.1468C13.5965 23.3957 12.2891 23.265 11.1015 22.7713C9.91381 22.2775 8.89913 21.4428 8.18563 20.3726C7.47213 19.3025 7.0919 18.0447 7.09281 16.7585C7.09372 15.4723 7.47583 14.2154 8.19083 13.1462C8.90584 12.077 9.92172 11.2437 11.1101 10.7516C12.2984 10.2595 13.6059 10.1307 14.8675 10.3813C16.129 10.632 17.288 11.251 18.198 12.16C18.3111 12.275 18.4056 12.3982 18.5094 12.5178V8.05468H20.0984V16.7696C20.109 17.7157 19.9087 18.6523 19.5117 19.5112C19.6293 19.2726 19.789 19.0574 19.9834 18.876C20.4828 18.4545 21.1197 18.2309 21.773 18.2474C22.0975 18.2334 22.4214 18.2834 22.7266 18.3948C23.0317 18.5062 23.312 18.6766 23.5512 18.8964C23.783 19.1275 23.964 19.4046 24.0826 19.7097C24.2013 20.0148 24.2548 20.3413 24.2399 20.6683C24.2399 21.9941 23.4418 23.0018 21.8694 23.6638C21.2006 23.9123 20.5875 24.2903 20.0652 24.7763C19.6595 25.1464 19.4168 25.6622 19.3902 26.2107C19.3796 26.4911 19.425 26.7707 19.5235 27.0334C19.622 27.2962 19.7717 27.5369 19.964 27.7412C20.1544 27.9354 20.3835 28.0875 20.6362 28.1878C20.889 28.2881 21.1599 28.3342 21.4316 28.3234C21.9631 28.3201 22.4831 28.1683 22.9328 27.885C23.467 27.5829 23.9018 27.132 24.1843 26.5871C24.5145 25.8934 24.671 25.1295 24.6397 24.3618V23.8575H26.0933V24.3657C26.1082 25.321 25.9084 26.2672 25.5084 27.1348L26.3575 28.1853C26.5117 27.9955 26.6754 27.8137 26.848 27.6403C28.0709 26.4199 29.728 25.7344 31.4558 25.7344C33.1835 25.7344 34.8406 26.4199 36.0636 27.6403C36.1767 27.7553 36.2714 27.8785 36.3752 27.9981V23.535H37.9642V30.7757L37.9615 30.7804Z" fill="#D91550"/>
</g>
<defs>
<clipPath id="clip0_988_37165">
<rect width="39.6552" height="39.6552" fill="white" transform="translate(3.17285 4.17188)"/>
</clipPath>
</defs>
</svg>
