<svg width="40" height="40" viewBox="0 0 40 40" fill="none" xmlns="http://www.w3.org/2000/svg">
<circle cx="20" cy="20" r="19.5" fill="white" stroke="#EAEAEA"/>
<g clip-path="url(#clip0_1003_29198)">
<path d="M18.9255 18.1418C18.9581 18.1384 18.9905 18.1331 19.0225 18.1259C19.2125 18.0952 19.3832 17.9925 19.4994 17.8391C19.5971 17.7517 19.6761 17.6451 19.7315 17.5262C19.7868 17.4074 19.8174 17.2785 19.8213 17.1474C19.8295 17.0305 19.8124 16.9133 19.7712 16.8035C19.7301 16.6938 19.6658 16.5942 19.5828 16.5115C19.4906 16.429 19.3832 16.3655 19.2665 16.3246C19.1497 16.2836 19.0259 16.2661 18.9024 16.2729C18.6708 16.2621 18.4442 16.3427 18.2713 16.4973C18.1935 16.5681 18.1325 16.6553 18.0929 16.7527C18.0533 16.8501 18.036 16.9551 18.0423 17.0601C18.0506 17.3136 18.1407 17.5575 18.299 17.7556C18.3608 17.869 18.4512 17.964 18.561 18.0318C18.6709 18.0996 18.7965 18.1375 18.9255 18.1418Z" fill="#D91550"/>
<path d="M27.2438 22.85C26.6878 22.8424 26.1361 22.948 25.6223 23.1607C25.1086 23.3734 24.6436 23.6885 24.2557 24.0868C24.0721 24.2712 23.9046 24.4712 23.7556 24.6845L23.7676 24.6989H23.7445C23.2123 25.4799 22.9569 26.4167 23.0189 27.3598C23.0809 28.3029 23.4568 29.1981 24.0867 29.9027C24.7166 30.6073 25.5642 31.0807 26.4945 31.2476C27.4248 31.4145 28.3843 31.2653 29.2198 30.8236C30.0554 30.3819 30.719 29.6732 31.105 28.8105C31.491 27.9478 31.5771 26.9806 31.3496 26.0632C31.122 25.1459 30.594 24.3311 29.8496 23.7487C29.1052 23.1664 28.1872 22.8501 27.2421 22.85H27.2438Z" fill="#D91550"/>
<path d="M11.9312 9.57658C10.9544 9.57689 10.008 9.91576 9.25304 10.5357C8.49809 11.1556 7.98127 12.0182 7.79091 12.9763C7.60056 13.9344 7.7483 14.9289 8.20894 15.7903C8.66958 16.6517 9.41478 17.3269 10.3173 17.7006C11.2199 18.0743 12.2239 18.1234 13.1587 17.8397C14.0935 17.5561 14.901 16.9571 15.4437 16.1449C15.9864 15.3326 16.2305 14.3574 16.1348 13.3852C16.039 12.4131 15.6092 11.5042 14.9185 10.8134C14.5309 10.4149 14.0661 10.0998 13.5525 9.88709C13.0388 9.67442 12.4871 9.56876 11.9312 9.57658Z" fill="#D91550"/>
<path d="M20 3C16.6377 3 13.351 3.99688 10.5554 5.86487C7.75975 7.73285 5.58078 10.388 4.29409 13.4944C3.0074 16.6007 2.6707 20.0188 3.32665 23.3165C3.9826 26.6141 5.6016 29.6432 7.9791 32.0207C10.3566 34.3982 13.3859 36.0174 16.6835 36.6734C19.9812 37.3293 23.3993 36.9926 26.5056 35.7059C29.612 34.4192 32.267 32.2403 34.1349 29.4446C36.0029 26.649 37 23.3623 37 20C37 15.4913 35.2089 11.1672 32.0207 7.97907C28.8326 4.79095 24.5087 3 20 3ZM32.8275 25.8139V27.077C32.8275 28.5578 32.2392 29.978 31.1921 31.0251C30.145 32.0722 28.7249 32.6606 27.2441 32.6606C25.7633 32.6606 24.343 32.0722 23.2959 31.0251C22.2488 29.978 21.6605 28.5578 21.6605 27.077C21.6511 26.2562 21.8276 25.4439 22.1765 24.701H22.1598L21.387 23.763C21.0538 24.1281 20.649 24.4204 20.1976 24.6218C19.7462 24.8231 19.2582 24.929 18.764 24.9331C17.9459 24.9626 17.1485 24.6713 16.5421 24.1215C16.2373 23.8419 15.9983 23.4985 15.8419 23.1156C15.6855 22.7327 15.6157 22.3199 15.6375 21.9069C15.656 21.2777 15.849 20.666 16.1949 20.1401C16.5407 19.6142 17.0259 19.1946 17.5963 18.9283C17.4612 18.7996 17.3406 18.6566 17.2368 18.5016C16.9463 18.1408 16.7793 17.6965 16.76 17.2337C16.7565 16.9355 16.8074 16.6391 16.9102 16.3592C16.6382 16.8719 16.2897 17.3402 15.8768 17.748C15.0955 18.5263 14.101 19.0555 13.0191 19.2689C11.9372 19.4823 10.8162 19.3703 9.79792 18.947C8.77964 18.5236 7.90966 17.8079 7.29791 16.8904C6.68616 15.9728 6.36016 14.8945 6.36094 13.7917C6.36171 12.6889 6.68933 11.6112 7.30237 10.6945C7.91542 9.77782 8.78642 9.06335 9.8053 8.64143C10.8242 8.21951 11.9452 8.10902 13.0269 8.32393C14.1085 8.53885 15.1022 9.06955 15.8824 9.84894C15.9794 9.94751 16.0604 10.0532 16.1495 10.1558V6.32908H17.5118V13.8012C17.5209 14.6124 17.3491 15.4154 17.0088 16.1518C17.1096 15.9472 17.2465 15.7627 17.4132 15.6072C17.8414 15.2458 18.3874 15.0541 18.9476 15.0683C19.2258 15.0563 19.5036 15.0991 19.7652 15.1946C20.0268 15.2901 20.2671 15.4363 20.4722 15.6247C20.671 15.8228 20.8262 16.0604 20.9279 16.322C21.0296 16.5835 21.0755 16.8635 21.0627 17.1439C21.0627 18.2806 20.3784 19.1446 19.0302 19.7122C18.4569 19.9253 17.9312 20.2494 17.4833 20.666C17.1355 20.9834 16.9274 21.4256 16.9046 21.8959C16.8955 22.1363 16.9344 22.376 17.0189 22.6013C17.1034 22.8266 17.2317 23.0329 17.3966 23.2082C17.5598 23.3746 17.7562 23.5051 17.9729 23.5911C18.1897 23.677 18.4219 23.7166 18.6549 23.7073C19.1106 23.7045 19.5565 23.5743 19.942 23.3314C20.4001 23.0724 20.7728 22.6858 21.015 22.2186C21.2982 21.6238 21.4323 20.9689 21.4055 20.3107V19.8783H22.6518V20.314C22.6646 21.133 22.4933 21.9444 22.1503 22.6883L22.8783 23.5889C23.0105 23.4262 23.1509 23.2703 23.2988 23.1216C24.3474 22.0752 25.7682 21.4875 27.2495 21.4875C28.7308 21.4875 30.1517 22.0752 31.2002 23.1216C31.2972 23.2202 31.3784 23.3259 31.4674 23.4284V19.6018H32.8298V25.8099L32.8275 25.8139Z" fill="#D91550"/>
</g>
<defs>
<clipPath id="clip0_1003_29198">
<rect width="34" height="34" fill="white" transform="translate(3 3)"/>
</clipPath>
</defs>
</svg>
