<svg width="64" height="64" viewBox="0 0 64 64" fill="none" xmlns="http://www.w3.org/2000/svg">
<g clip-path="url(#clip0_2699_995)">
<path d="M29.9774 28.5016C30.0388 28.4951 30.0998 28.4851 30.16 28.4717C30.5176 28.4138 30.839 28.2206 31.0576 27.9317C31.2416 27.7672 31.3903 27.5667 31.4945 27.3429C31.5987 27.1191 31.6562 26.8765 31.6637 26.6298C31.679 26.4097 31.6469 26.189 31.5694 25.9824C31.4919 25.7759 31.371 25.5883 31.2147 25.4327C31.0411 25.2774 30.839 25.1579 30.6192 25.0809C30.3995 25.0038 30.1664 24.9707 29.9339 24.9837C29.4979 24.9632 29.0713 25.1151 28.7459 25.406C28.5996 25.5392 28.4848 25.7034 28.4102 25.8867C28.3356 26.0701 28.3031 26.2678 28.3149 26.4654C28.3305 26.9425 28.5001 27.4018 28.7982 27.7747C28.9144 27.988 29.0845 28.167 29.2913 28.2945C29.4981 28.422 29.7346 28.4935 29.9774 28.5016Z" fill="black"/>
<path d="M45.636 37.3656C44.5895 37.3513 43.5508 37.5502 42.5838 37.9504C41.6168 38.3507 40.7415 38.9439 40.0113 39.6937C39.6656 40.0408 39.3505 40.4173 39.0699 40.8189L39.0926 40.8459H39.0491C38.0473 42.3161 37.5665 44.0794 37.6832 45.8546C37.7999 47.6299 38.5074 49.3149 39.6931 50.6413C40.8788 51.9676 42.4744 52.8587 44.2255 53.1729C45.9766 53.487 47.7827 53.2061 49.3555 52.3747C50.9284 51.5432 52.1776 50.2093 52.9042 48.5853C53.6307 46.9614 53.7927 45.1408 53.3644 43.414C52.9362 41.6873 51.9422 40.1535 50.541 39.0573C49.1398 37.9611 47.4118 37.3657 45.6327 37.3656H45.636Z" fill="black"/>
<path d="M16.8111 12.3789C14.9723 12.3795 13.1909 13.0174 11.7699 14.1843C10.3488 15.3512 9.37593 16.9749 9.01761 18.7784C8.6593 20.5819 8.9374 22.4539 9.80449 24.0754C10.6716 25.6969 12.0743 26.9677 13.7732 27.6711C15.4721 28.3746 17.3621 28.467 19.1217 27.9331C20.8812 27.3991 22.4014 26.2718 23.4228 24.7428C24.4443 23.2139 24.9039 21.378 24.7237 19.5481C24.5435 17.7182 23.7345 16.0073 22.4343 14.7071C21.7046 13.957 20.8298 13.3638 19.8629 12.9634C18.8961 12.5631 17.8575 12.3642 16.8111 12.3789Z" fill="black"/>
<path d="M32 0C25.671 0 19.4843 1.87649 14.2219 5.39269C8.95952 8.9089 4.85793 13.9069 2.43593 19.7541C0.0139258 25.6013 -0.619863 32.0354 0.614864 38.2427C1.84959 44.4501 4.89714 50.1519 9.37242 54.6272C13.8477 59.1025 19.5499 62.1504 25.7573 63.3851C31.9647 64.6199 38.3987 63.9861 44.2459 61.5641C50.0932 59.1421 55.0907 55.0405 58.6069 49.7781C62.1232 44.5157 64 38.329 64 32C64 23.5131 60.6284 15.3735 54.6273 9.37237C48.6261 3.37121 40.487 0 32 0ZM56.1459 42.9439V45.3213C56.1459 48.1088 55.0384 50.7822 53.0674 52.7532C51.0964 54.7242 48.4234 55.8316 45.6359 55.8316C42.8485 55.8316 40.1751 54.7242 38.2041 52.7532C36.2331 50.7822 35.1256 48.1088 35.1256 45.3213C35.1079 43.7764 35.4401 42.2474 36.097 40.8489H36.0656L34.6109 39.0833C33.9837 39.7705 33.2216 40.3208 32.3719 40.6998C31.5223 41.0788 30.6037 41.2782 29.6734 41.2858C28.1334 41.3413 26.6325 40.7931 25.4909 39.758C24.9173 39.2317 24.4673 38.5854 24.1729 37.8647C23.8785 37.1439 23.7471 36.3669 23.7882 35.5895C23.8231 34.4052 24.1864 33.2537 24.8374 32.2637C25.4884 31.2737 26.4017 30.484 27.4753 29.9827C27.2211 29.7405 26.9941 29.4713 26.7988 29.1794C26.252 28.5004 25.9375 27.6639 25.9012 26.7929C25.8947 26.2316 25.9904 25.6737 26.1839 25.1468C25.672 26.1118 25.016 26.9933 24.2387 27.7609C22.768 29.2259 20.8961 30.2222 18.8595 30.6239C16.8229 31.0255 14.7129 30.8147 12.7961 30.0178C10.8793 29.2209 9.24171 27.8738 8.09018 26.1466C6.93866 24.4195 6.32501 22.3896 6.32647 20.3137C6.32793 18.2379 6.94463 16.2093 8.09859 14.4838C9.25255 12.7582 10.8921 11.4134 12.81 10.6192C14.7279 9.82497 16.8381 9.61697 18.8741 10.0215C20.9101 10.4261 22.7807 11.425 24.2493 12.8921C24.4318 13.0777 24.5843 13.2767 24.7519 13.4697V6.26651H27.3164V20.3316C27.3334 21.8586 27.0101 23.3701 26.3695 24.7563C26.5592 24.3713 26.8169 24.0239 27.1308 23.7312C27.9368 23.0509 28.9646 22.69 30.019 22.7167C30.5427 22.6941 31.0656 22.7748 31.558 22.9546C32.0505 23.1343 32.5028 23.4094 32.8888 23.7641C33.263 24.1371 33.5551 24.5842 33.7466 25.0766C33.938 25.569 34.0244 26.096 34.0005 26.6237C34.0005 28.7634 32.7123 30.3899 30.1746 31.4582C29.0953 31.8593 28.1057 32.4695 27.2627 33.2537C26.608 33.851 26.2163 34.6835 26.1733 35.5687C26.1563 36.0213 26.2295 36.4725 26.3885 36.8966C26.5475 37.3207 26.789 37.709 27.0994 38.0389C27.4067 38.3523 27.7764 38.5978 28.1844 38.7597C28.5923 38.9215 29.0295 38.996 29.4681 38.9785C30.3258 38.9731 31.1651 38.7281 31.8908 38.2709C32.7531 37.7833 33.4547 37.0556 33.9106 36.1762C34.4436 35.0566 34.6961 33.8238 34.6456 32.5848V31.7709H36.9916V32.591C37.0157 34.1328 36.6932 35.66 36.0477 37.0602L37.4179 38.7556C37.6669 38.4493 37.9311 38.1558 38.2095 37.876C40.1833 35.9063 42.8578 34.8001 45.6461 34.8001C48.4345 34.8001 51.109 35.9063 53.0827 37.876C53.2653 38.0615 53.4182 38.2605 53.5858 38.4535V31.2504H56.1502V42.9362L56.1459 42.9439Z" fill="black"/>
</g>
<defs>
<clipPath id="clip0_2699_995">
<rect width="64" height="64" fill="white"/>
</clipPath>
</defs>
</svg>
