<svg width="150" height="150" viewBox="0 0 150 150" fill="none" xmlns="http://www.w3.org/2000/svg">
<rect width="150" height="150" rx="75" fill="#F2F5F9"/>
<path opacity="0.01" d="M43.4243 43.4214H106.582V106.579H43.4243V43.4214Z" fill="#C4C4C4"/>
<path fill-rule="evenodd" clip-rule="evenodd" d="M75.0009 44.3294C76.2435 44.3243 77.2551 45.3274 77.2602 46.5701L77.4638 95.5998C77.4638 98.1644 76.2991 100.553 74.3473 102.264C72.4052 103.967 69.8277 104.882 67.1924 104.882C65.881 104.884 64.5766 104.66 63.3515 104.217C62.1253 103.774 60.9933 103.117 60.0266 102.271C59.0594 101.425 58.2736 100.404 57.7308 99.2569C57.1874 98.1086 56.9023 96.8648 56.9023 95.5998C56.9023 94.3572 57.9097 93.3498 59.1523 93.3498C60.395 93.3498 61.4023 94.3572 61.4023 95.5999C61.4023 96.1843 61.5333 96.7719 61.7984 97.332C62.064 97.8932 62.4631 98.4238 62.9894 98.8841C63.5161 99.3449 64.1569 99.7232 64.8812 99.985C65.6056 100.247 66.39 100.384 67.1873 100.382L67.1915 100.382C68.8111 100.382 70.3144 99.8154 71.381 98.8804C72.4369 97.9548 72.9626 96.7681 72.9638 95.6039C72.9638 95.6025 72.9638 95.6012 72.9638 95.5998L72.7603 46.5887C72.7551 45.3461 73.7583 44.3346 75.0009 44.3294ZM67.1924 104.882C67.1921 104.882 67.1927 104.882 67.1924 104.882L67.1915 102.632L67.1957 104.882C67.1946 104.882 67.1935 104.882 67.1924 104.882Z" fill="#94B9FF"/>
<path d="M86.8473 77.6749C86.8473 62.6816 81.5493 50.526 74.996 50.526C68.4427 50.526 63.1631 62.6816 63.1631 77.6749C63.1631 77.8504 63.1631 77.9967 63.1631 78.1576L67.4071 76.7418C72.3332 75.0985 77.6593 75.0973 82.5861 76.7383L86.8473 78.1576C86.8473 77.9382 86.8473 77.7919 86.8473 77.6749Z" fill="#2057FF"/>
<path d="M43.4258 78.1577C48.1626 57.6314 66.4521 51.184 75.0047 50.5261C65.531 52.1051 63.1626 69.6051 63.1626 78.1577C56.8468 71.8419 47.3731 75.5261 43.4258 78.1577Z" fill="#94B9FF"/>
<path d="M106.583 78.1577C101.846 57.6314 83.5562 51.184 75.0036 50.5261C84.4773 52.1051 86.8457 69.6051 86.8457 78.1577C93.1615 71.8419 102.635 75.5261 106.583 78.1577Z" fill="#94B9FF"/>
</svg>
