<svg width="150" height="150" viewBox="0 0 150 150" fill="none" xmlns="http://www.w3.org/2000/svg">
<rect width="150" height="150" rx="75" fill="#F2F5F9"/>
<path d="M106.58 63.8922C106.58 62.0083 105.826 60.2016 104.484 58.8695C103.141 57.5374 101.321 56.7891 99.4224 56.7891H50.5803C48.6819 56.7891 46.8612 57.5374 45.5188 58.8695C44.1765 60.2016 43.4224 62.0083 43.4224 63.8922C43.4224 65.7761 44.1765 67.5828 45.5188 68.9149C46.8612 70.247 48.6819 70.9953 50.5803 70.9953C50.5548 71.2622 50.5548 71.5308 50.5803 71.7976L52.416 91.8535C52.6616 94.1183 53.731 96.2165 55.4238 97.7549C57.1167 99.2933 59.3168 100.166 61.6118 100.21H88.5592C90.8524 100.166 93.0503 99.2923 94.7404 97.7536C96.4305 96.2149 97.4965 94.1169 97.7382 91.8535L99.5739 71.7976C99.5908 71.5304 99.5908 71.2625 99.5739 70.9953C101.445 70.9518 103.224 70.1847 104.533 68.8578C105.842 67.5308 106.576 65.749 106.58 63.8922Z" fill="#94B9FF"/>
<path d="M84.8687 76.9737C84.8687 75.8836 85.7523 75 86.8423 75C87.9324 75 88.816 75.8836 88.816 76.9737V86.8421C88.816 87.9321 87.9324 88.8158 86.8423 88.8158C85.7523 88.8158 84.8687 87.9321 84.8687 86.8421V76.9737Z" fill="white"/>
<path d="M73.0269 76.9737C73.0269 75.8836 73.9105 75 75.0005 75C76.0906 75 76.9742 75.8836 76.9742 76.9737V86.8421C76.9742 87.9321 76.0906 88.8158 75.0005 88.8158C73.9105 88.8158 73.0269 87.9321 73.0269 86.8421V76.9737Z" fill="white"/>
<path d="M61.1851 76.9737C61.1851 75.8836 62.0687 75 63.1587 75C64.2488 75 65.1324 75.8836 65.1324 76.9737V86.8421C65.1324 87.9321 64.2488 88.8158 63.1587 88.8158C62.0687 88.8158 61.1851 87.9321 61.1851 86.8421V76.9737Z" fill="white"/>
<path fill-rule="evenodd" clip-rule="evenodd" d="M70.1715 47.2003C71.1067 48.0186 71.2015 49.44 70.3832 50.3752L58.5937 63.8489C57.7754 64.7841 56.354 64.8789 55.4188 64.0606C54.4836 63.2423 54.3888 61.8208 55.2071 60.8856L66.9966 47.412C67.8149 46.4768 69.2363 46.382 70.1715 47.2003Z" fill="#2057FF"/>
<path fill-rule="evenodd" clip-rule="evenodd" d="M80.6712 47.2003C81.6064 46.382 83.0279 46.4768 83.8462 47.412L95.6356 60.8856C96.4539 61.8208 96.3592 63.2423 95.424 64.0606C94.4888 64.8789 93.0673 64.7841 92.249 63.8489L80.4596 50.3752C79.6413 49.44 79.736 48.0186 80.6712 47.2003Z" fill="#2057FF"/>
</svg>
