<svg width="74" height="96" viewBox="0 0 74 96" fill="none" xmlns="http://www.w3.org/2000/svg">
<path d="M9.27734 79.4141C9.13086 78.0273 7.8418 77.2266 6.15234 77.2266C4.27734 77.2266 3.05664 78.2031 3.04688 79.5508C3.05664 81.0352 4.70703 81.5918 5.78125 81.8555L7.1875 82.2461C8.70117 82.6367 11.1914 83.5059 11.1914 86.1523C11.1914 88.457 9.33594 90.2441 6.05469 90.2539C3.00781 90.2441 1.12305 88.6719 0.957031 86.3281H2.75391C2.90039 87.9102 4.375 88.6621 6.05469 88.6523C8.00781 88.6621 9.47266 87.6562 9.47266 86.1133C9.47266 84.7363 8.16406 84.209 6.67969 83.7891L4.94141 83.3203C2.72461 82.6758 1.33789 81.543 1.34766 79.6289C1.33789 77.2363 3.4668 75.6641 6.21094 75.6641C8.95508 75.6641 10.9277 77.2656 10.9961 79.4141H9.27734ZM22.632 90.2148C19.6242 90.2246 17.7883 87.9297 17.7883 84.7461C17.7883 81.5234 19.7121 79.2578 22.593 79.2578C24.8488 79.2578 26.548 80.5957 26.8117 82.5977H25.132C24.8879 81.6309 24.048 80.7422 22.632 80.7422C20.7375 80.7422 19.4777 82.3047 19.468 84.6875C19.4777 87.1387 20.7082 88.7109 22.632 88.7109C23.882 88.7109 24.8391 88.0371 25.132 86.875H26.8117C26.548 88.7695 24.9855 90.2246 22.632 90.2148ZM33.682 90V79.3945H35.3031V81.0156H35.4203C35.8012 79.9414 36.9047 79.2285 38.1547 79.2188C38.4086 79.2285 38.8383 79.2383 39.0336 79.2578V80.957C38.9066 80.9277 38.4574 80.8398 38.018 80.8398C36.4945 80.8398 35.3617 81.8945 35.3617 83.3203V90H33.682ZM49.4586 90.2148C46.568 90.2246 44.6148 88.0371 44.6148 84.7461C44.6148 81.4355 46.568 79.2578 49.4586 79.2578C52.3395 79.2578 54.273 81.4355 54.2633 84.7461C54.273 88.0371 52.3395 90.2246 49.4586 90.2148ZM46.2945 84.7461C46.3043 86.8652 47.3004 88.7305 49.4586 88.7305C51.5973 88.7305 52.5836 86.8652 52.5836 84.7461C52.5836 82.6367 51.5973 80.7422 49.4586 80.7422C47.3004 80.7422 46.3043 82.6367 46.2945 84.7461ZM62.95 75.8594V90H61.2703V75.8594H62.95ZM72.1055 75.8594V90H70.4258V75.8594H72.1055Z" fill="white"/>
<rect x="18" y="1" width="38" height="58" rx="19" stroke="white" stroke-width="2"/>
<circle cx="37" cy="17" r="3" fill="white"/>
</svg>
