<svg width="307" height="60" viewBox="0 0 307 60" fill="none" xmlns="http://www.w3.org/2000/svg">
<rect width="60" height="60" rx="30" fill="#D22127"/>
<path d="M40.9018 19.7924L32.4595 34.9874L29.5772 17.617L26.4425 17.0183L18.0152 32.1349L15.1691 14.856L11.4062 14.1331L15.5327 37.8498L18.5743 38.4353L26.9745 23.574L29.9349 40.614L33.0395 41.2094L41.8064 25.7232L43.2491 33.957L40.5532 33.4401L38.5305 37.0156L43.9163 38.0493L44.9171 43.4894L48.4605 44.1699L44.6015 20.5022L40.9018 19.7924Z" fill="white"/>
<path d="M81.2266 25.5H84.6719L87.9297 14.2969H88.0703L91.3047 25.5H94.75L99.6016 8.53125H95.7578L92.8984 20.4141H92.7578L89.6406 8.53125H86.3359L83.2188 20.3906H83.0781L80.2188 8.53125H76.375L81.2266 25.5ZM101.406 25.5H112.82V22.5938H104.922V18.4688H112.211V15.5625H104.922V11.4375H112.797V8.53125H101.406V25.5ZM115.539 25.5H122.734C126.566 25.5 128.582 23.5078 128.594 20.8125C128.582 18.3047 126.777 16.7812 124.867 16.6875V16.5234C126.613 16.1367 127.926 14.8828 127.914 12.8906C127.926 10.3359 126.027 8.53125 122.289 8.53125H115.539V25.5ZM119.055 22.5938V18.0469H122.125C123.859 18.0469 124.949 19.0547 124.938 20.4844C124.949 21.7617 124.07 22.6055 122.031 22.5938H119.055ZM119.055 15.6328V11.3906H121.844C123.449 11.3906 124.363 12.2227 124.352 13.4531C124.363 14.8125 123.25 15.6445 121.773 15.6328H119.055ZM139.188 25.5L140.465 21.5859H146.605L147.883 25.5H151.656L145.797 8.53125H141.273L135.391 25.5H139.188ZM141.355 18.8438L143.477 12.3516H143.594L145.715 18.8438H141.355ZM155.664 25.5H159.109L162.367 14.2969H162.508L165.742 25.5H169.188L174.039 8.53125H170.195L167.336 20.4141H167.195L164.078 8.53125H160.773L157.656 20.3906H157.516L154.656 8.53125H150.812L155.664 25.5ZM176.969 25.5L178.246 21.5859H184.387L185.664 25.5H189.438L183.578 8.53125H179.055L173.172 25.5H176.969ZM179.137 18.8438L181.258 12.3516H181.375L183.496 18.8438H179.137ZM191.359 25.5H194.875V19.4766H197.559L200.805 25.5H204.695L201.086 18.9023C203.02 18.0703 204.086 16.3828 204.086 14.0625C204.086 10.6992 201.871 8.53125 198.016 8.53125H191.359V25.5ZM194.875 16.6172V11.4141H197.359C199.445 11.4258 200.465 12.3516 200.453 14.0625C200.465 15.7617 199.445 16.6172 197.359 16.6172H194.875ZM212.5 25.5C217.68 25.5 220.809 22.3008 220.797 16.9922C220.809 11.707 217.68 8.53125 212.57 8.53125H206.523V25.5H212.5ZM210.039 22.4766V11.5547H212.383C215.594 11.5547 217.281 13.2188 217.281 16.9922C217.281 20.8008 215.594 22.4766 212.359 22.4766H210.039ZM228.883 25.5H232.398V20.6484L234.18 18.4922L238.891 25.5H243.109L236.711 16.125L243.039 8.53125H238.797L232.633 16.0547H232.398V8.53125H228.883V25.5ZM259.375 17.0156C259.375 11.4727 255.941 8.29688 251.453 8.29688C246.93 8.29688 243.508 11.4727 243.508 17.0156C243.508 22.5352 246.93 25.7344 251.453 25.7344C255.941 25.7344 259.375 22.5586 259.375 17.0156ZM247.094 17.0156C247.094 13.3828 248.816 11.4258 251.453 11.4141C254.066 11.4258 255.801 13.3828 255.789 17.0156C255.801 20.6367 254.066 22.6055 251.453 22.6172C248.816 22.6055 247.094 20.6367 247.094 17.0156ZM261.906 25.5H265.422V19.4766H268.105L271.352 25.5H275.242L271.633 18.9023C273.566 18.0703 274.633 16.3828 274.633 14.0625C274.633 10.6992 272.418 8.53125 268.562 8.53125H261.906V25.5ZM265.422 16.6172V11.4141H267.906C269.992 11.4258 271.012 12.3516 271 14.0625C271.012 15.7617 269.992 16.6172 267.906 16.6172H265.422ZM277.07 25.5H288.484V22.5938H280.586V18.4688H287.875V15.5625H280.586V11.4375H288.461V8.53125H277.07V25.5ZM294.039 25.5L295.316 21.5859H301.457L302.734 25.5H306.508L300.648 8.53125H296.125L290.242 25.5H294.039ZM296.207 18.8438L298.328 12.3516H298.445L300.566 18.8438H296.207Z" fill="black"/>
<path d="M90.0449 35.2441H88.4453V44.9824H90.0449V35.2441ZM76.4922 41.2734L76.6504 42.5566C77.5732 42.5566 78.7334 42.5479 79.9727 42.4951V44.9121H81.5898V42.3984C82.7148 42.3105 83.8486 42.1699 84.877 41.959L84.7539 40.8164C82.1436 41.2295 78.6279 41.2734 76.4922 41.2734ZM77.2656 38.127C77.2568 39.5684 78.6455 40.4736 80.7109 40.4824C82.7676 40.4736 84.165 39.5684 84.1562 38.127C84.165 36.6855 82.7676 35.7979 80.7109 35.7891C78.6455 35.7979 77.2568 36.6855 77.2656 38.127ZM78.7773 38.127C78.7773 37.3975 79.5156 36.9668 80.7109 36.9844C81.8887 36.9668 82.6621 37.3975 82.6621 38.127C82.6621 38.8652 81.8887 39.2871 80.7109 39.2871C79.5156 39.2871 78.7773 38.8652 78.7773 38.127ZM79.2168 50.8008H90.0449V45.5273H88.3926V46.8633H80.8516V45.5273H79.2168V50.8008ZM80.8516 49.4824V48.1641H88.3926V49.4824H80.8516ZM82.8906 44.1562H85.5449V44.9473H87.127V35.5078H85.5449V42.9961H82.8906V44.1562ZM106.551 47.7598H102.596V44.2617H105.18V42.9082H102.824V38.0039H105.232V36.6328H93.3672V38.0039H95.7578V42.9082H93.4023V44.2617H96.0039V47.7598H92.1367V49.1309H106.551V47.7598ZM97.4102 42.9082V38.0039H101.189V42.9082H97.4102ZM97.6738 47.7598V44.2617H100.926V47.7598H97.6738ZM120.771 36H109.012V37.3359H113.758C113.679 39.041 111.429 40.5615 108.484 40.9219L109.117 42.2402C111.807 41.8887 114.013 40.6318 114.874 38.8652C115.718 40.6318 117.933 41.8887 120.631 42.2402L121.264 40.9219C118.337 40.5615 116.069 39.0498 115.973 37.3359H120.771V36ZM107.676 44.6133H114.18V47.6719H115.832V44.6133H122.09V43.2598H107.676V44.6133ZM109.469 50.6602H120.49V49.3066H111.139V46.1602H109.469V50.6602ZM140.688 35.2441H139.018V51.0293H140.688V35.2441ZM128.189 41.9414C128.189 45.3428 129.886 47.4873 132.268 47.4785C134.605 47.4873 136.328 45.3428 136.328 41.9414C136.328 38.5752 134.605 36.4307 132.268 36.4219C129.886 36.4307 128.189 38.5752 128.189 41.9414ZM129.807 41.9414C129.798 39.4717 130.8 37.9248 132.268 37.916C133.709 37.9248 134.711 39.4717 134.711 41.9414C134.711 44.4463 133.709 45.9844 132.268 45.9844C130.8 45.9844 129.798 44.4463 129.807 41.9414ZM155.98 42.2754H146.611V36.5449H144.924V43.6465H149.547V47.6543H143.201V49.0254H157.615V47.6543H151.217V43.6465H155.98V42.2754ZM160.867 36.7559H159.285V47.1094H165.42V42.5391H167.512V50.2383H169.111V35.5605H167.512V41.1504H165.42V36.7559H163.891V40.5352H160.867V36.7559ZM160.867 45.7207V41.8887H163.891V45.7207H160.867ZM170.711 50.9941H172.311V35.2441H170.711V50.9941ZM187.357 35.2441H185.688V51.0293H187.357V35.2441ZM174.859 41.9414C174.859 45.3428 176.556 47.4873 178.938 47.4785C181.275 47.4873 182.998 45.3428 182.998 41.9414C182.998 38.5752 181.275 36.4307 178.938 36.4219C176.556 36.4307 174.859 38.5752 174.859 41.9414ZM176.477 41.9414C176.468 39.4717 177.47 37.9248 178.938 37.916C180.379 37.9248 181.381 39.4717 181.381 41.9414C181.381 44.4463 180.379 45.9844 178.938 45.9844C177.47 45.9844 176.468 44.4463 176.477 41.9414ZM195.426 38.0918V36.1406H193.773V38.0918C193.765 40.5088 192.297 42.75 189.871 43.6465L190.768 44.9824C192.604 44.2529 193.94 42.7939 194.617 40.957C195.285 42.6621 196.56 44.042 198.273 44.7363L199.188 43.4355C196.841 42.5303 195.435 40.3594 195.426 38.0918ZM192.719 50.6602H203.354V49.3066H194.406V45.8086H192.719V50.6602ZM198.273 42.0293H201.332V46.9863H203.002V35.2617H201.332V37.4941H198.273V38.8477H201.332V40.6758H198.273V42.0293ZM223.34 35.2441H221.74V41.4844H219.701V35.5605H218.172V50.1855H219.701V42.8555H221.74V50.9941H223.34V35.2441ZM210.35 47.2148H211.404C213.698 47.1973 215.333 47.1357 217.223 46.7402L217.1 45.3691C215.412 45.6943 213.953 45.7822 212.02 45.791V38.4961H216.256V37.1426H210.35V47.2148ZM230.811 37.7578V36.0703H229.158V37.6172C229.141 39.9727 227.717 42.0732 225.256 42.9434L226.152 44.2793C227.989 43.6025 229.325 42.2139 230.011 40.4473C230.696 42.0029 231.988 43.2334 233.711 43.8398L234.607 42.5215C232.261 41.748 230.802 39.8232 230.811 37.7578ZM227.383 48.041C227.383 49.9043 229.396 50.9678 232.674 50.959C235.908 50.9678 237.895 49.9043 237.895 48.041C237.895 46.1953 235.908 45.1143 232.674 45.123C229.396 45.1143 227.383 46.1953 227.383 48.041ZM229.053 48.041C229.044 47.0391 230.397 46.4414 232.674 46.4414C234.933 46.4414 236.269 47.0391 236.26 48.041C236.269 49.0781 234.933 49.6406 232.674 49.6582C230.397 49.6406 229.044 49.0781 229.053 48.041ZM236.084 44.7539H237.754V40.6055H240.039V39.1992H237.754V35.2441H236.084V44.7539Z" fill="#555555"/>
</svg>
