<svg width="40" height="40" viewBox="0 0 40 40" fill="none" xmlns="http://www.w3.org/2000/svg">
<g clip-path="url(#clip0_2827_2772)">
<path d="M7.08334 3.22406e-06H32.9167C33.8471 -0.000896212 34.7686 0.186404 35.6284 0.551183C36.4882 0.915963 37.2694 1.45106 37.9273 2.12585C38.5852 2.80065 39.1069 3.60189 39.4626 4.48372C39.8183 5.36555 40.0009 6.31066 40 7.26496V32.735C40.0009 33.6893 39.8183 34.6345 39.4626 35.5163C39.1069 36.3981 38.5852 37.1994 37.9273 37.8742C37.2694 38.5489 36.4882 39.084 35.6284 39.4488C34.7686 39.8136 33.8471 40.0009 32.9167 40H7.08334C6.15289 40.0009 5.23141 39.8136 4.37162 39.4488C3.51184 39.084 2.73063 38.5489 2.07271 37.8742C1.41478 37.1994 0.893064 36.3981 0.537404 35.5163C0.181744 34.6345 -0.000873806 33.6893 3.14346e-06 32.735V7.26496C-0.000873806 6.31066 0.181744 5.36555 0.537404 4.48372C0.893064 3.60189 1.41478 2.80065 2.07271 2.12585C2.73063 1.45106 3.51184 0.915963 4.37162 0.551183C5.23141 0.186404 6.15289 -0.000896212 7.08334 3.22406e-06Z" fill="#330000"/>
<path d="M19.3833 23.9999H13.1833L11.9166 28.017C11.9025 28.0903 11.8621 28.1554 11.8035 28.1997C11.7449 28.244 11.6723 28.2642 11.5999 28.2564H8.46661C8.28327 28.2564 8.23327 28.1538 8.28327 27.9487L13.6499 12.1025C13.6999 11.9316 13.7499 11.7435 13.8166 11.5384C13.8837 11.172 13.9172 10.8001 13.9166 10.4273C13.9116 10.3845 13.9226 10.3413 13.9473 10.3064C13.972 10.2716 14.0087 10.2476 14.0499 10.2393H18.3666C18.4999 10.2393 18.5666 10.2905 18.5833 10.376L24.6666 27.9828C24.7166 28.1709 24.6666 28.2564 24.4999 28.2564H21.0166C20.9577 28.2622 20.8987 28.2465 20.8499 28.2121C20.8011 28.1777 20.7657 28.1268 20.7499 28.0683L19.3833 23.9999ZM14.1499 20.5299H18.3833C18.2833 20.1709 18.1499 19.7435 17.9999 19.2991C17.8499 18.8546 17.6999 18.3418 17.5499 17.829C17.3999 17.3162 17.2333 16.7863 17.0666 16.2564C16.8999 15.7264 16.7499 15.2307 16.6166 14.735C16.4833 14.2393 16.3666 13.8119 16.2499 13.4017H16.2166C16.0668 14.1467 15.8777 14.8828 15.6499 15.6068C15.3999 16.4273 15.1499 17.282 14.8833 18.1367C14.6499 19.0085 14.3999 19.8119 14.1499 20.5299Z" fill="#FF9A00"/>
<path d="M28.2999 13.1624C28.0263 13.1685 27.7543 13.1188 27.4996 13.0161C27.245 12.9133 27.0128 12.7597 26.8166 12.5641C26.4347 12.1359 26.2313 11.5714 26.2499 10.9914C26.2401 10.7088 26.2884 10.4273 26.3918 10.1651C26.4952 9.90301 26.6513 9.66617 26.8499 9.47006C27.2505 9.08171 27.782 8.86733 28.3332 8.87177C28.9832 8.87177 29.4832 9.0769 29.8499 9.47006C30.2191 9.88455 30.4164 10.4303 30.3999 10.9914C30.4101 11.2802 30.3637 11.5682 30.2635 11.8383C30.1633 12.1084 30.0113 12.3552 29.8166 12.5641C29.6202 12.7692 29.3832 12.9288 29.1215 13.032C28.8599 13.1352 28.5797 13.1797 28.2999 13.1624ZM26.4332 28V14.8376C26.4332 14.6666 26.4999 14.5983 26.6499 14.5983H29.9499C30.0999 14.5983 30.1666 14.6837 30.1666 14.8376V28C30.1666 28.188 30.0999 28.2735 29.9499 28.2735H26.6832C26.6482 28.2764 26.613 28.2713 26.5802 28.2583C26.5474 28.2453 26.5179 28.2249 26.4938 28.1987C26.4698 28.1724 26.4519 28.1408 26.4414 28.1064C26.4309 28.072 26.4281 28.0356 26.4332 28Z" fill="#FF9A00"/>
</g>
<defs>
<clipPath id="clip0_2827_2772">
<rect width="40" height="40" fill="white"/>
</clipPath>
</defs>
</svg>
